# Blender v2.74 (sub 0) OBJ File: ''
# www.blender.org
o fireplace
v -0.252224 2.833268 -3.295123
v -0.252225 2.833268 -2.411813
v 0.241901 4.105514 -2.411813
v 2.506018 1.088822 -2.937642
v 2.433105 1.800852 -2.949762
v 2.388530 1.878340 -2.401185
v -0.316083 1.188297 -3.657869
v -0.294462 1.862069 -3.604082
v -0.233107 1.188297 -3.778708
v 2.007377 0.991797 -3.840979
v 2.103956 0.468965 -3.810184
v 1.542020 0.849885 -3.804919
v 2.388530 2.433788 -2.401185
v 1.068153 1.878341 -3.778708
v -0.196559 1.850231 -3.717679
v -0.252224 2.433788 -3.295121
v 1.068153 2.833268 -3.295123
v 1.068153 4.105514 -2.642082
v 2.388530 2.833268 -2.401186
v 2.388530 2.833268 -3.295121
v 1.894405 4.105514 -2.401185
v 0.006874 0.060257 -3.809345
v 0.006014 0.485016 -3.859768
v 0.323212 0.060257 -3.814262
v 2.115623 0.060257 -3.810184
v 1.782426 0.060257 -3.830312
v 2.472672 0.460372 -3.000095
v 2.388530 1.108029 -2.401186
v 0.169427 1.002784 -3.863500
v 0.339332 0.395845 -3.778708
v -0.315076 0.527764 -3.658301
v -0.233107 0.527764 -3.778708
v 2.479746 0.060257 -3.089947
v 2.388530 0.500818 -2.401186
v -0.296757 0.060257 -3.622142
v 0.339332 0.395845 -3.294369
v 0.521377 0.826027 -3.841193
v 0.761727 1.051274 -3.843990
v 0.521377 0.826027 -3.294370
v 1.015155 1.062686 -3.811349
v 1.268583 1.074098 -3.778708
v 1.268583 1.074098 -3.294370
v 1.756513 0.430073 -3.778708
v 1.756513 0.430073 -3.294369
v 2.057491 11.071986 -1.841176
v 1.986437 11.092751 -2.670616
v 1.591755 11.090405 -1.877454
v 1.609630 11.099374 -1.419183
v 1.552898 7.989207 -1.877762
v 0.532865 11.088215 -2.378843
v 0.555969 11.063319 -1.849892
v 0.560294 7.991498 -1.895957
v 1.569702 11.108325 -2.332111
v 1.040838 11.067691 -2.310427
v 1.049624 7.991498 -2.332640
v 1.064120 11.070008 -1.422947
v 1.063568 7.989207 -1.441079
v 0.536267 11.066713 -1.411825
v 0.546350 7.993788 -2.350835
v 1.882099 1.522355 -3.834581
v 0.216586 1.501922 -3.894822
v 1.049342 1.512138 -3.864702
v -0.226520 0.060256 -2.411813
v -0.233130 0.527763 -2.411813
v -0.241331 0.060257 -3.174537
v -0.242469 1.188296 -2.411813
v -0.252225 1.878340 -2.411813
v -0.322562 1.188296 -3.263658
v -0.329911 1.878340 -3.047294
v -0.252225 2.433788 -2.411813
v 2.460042 0.060257 -3.656809
v 2.457540 0.492705 -3.646955
v 2.412124 1.865371 -3.601256
v 2.414416 2.433788 -2.765621
v 2.462497 1.104460 -3.646833
v 2.374739 1.108030 -3.775172
v 2.374739 0.500819 -3.775172
v -0.233106 0.060257 -3.778708
v 2.374739 0.060257 -3.775172
v 2.318255 1.878341 -3.686248
v 2.388530 2.433788 -3.295120
v 1.015155 1.062686 -3.294370
v 2.135281 0.050896 -3.396195
v 2.135281 0.050895 -2.518590
v 2.115125 1.494716 -2.518588
v -0.036765 0.050895 -2.518590
v -0.056921 1.494716 -2.518588
v -0.036765 0.050896 -3.570243
v -0.332807 0.527764 -3.152568
v -0.252224 2.433788 -2.825411
v 0.121432 9.134619 -1.894438
v 0.218875 9.107112 -1.118031
v 0.117011 9.960485 -1.895091
v 0.998118 9.163539 -2.767939
v 1.074535 9.944458 -2.792074
v 1.848722 9.990377 -2.612423
v 1.984541 9.133736 -1.871122
v 1.878524 9.143438 -2.633662
v 2.043714 10.004227 -1.879864
v 1.074634 9.118578 -1.039784
v 1.886961 9.124375 -1.143213
v 1.049925 10.030928 -1.079497
v 1.936969 9.850844 -1.133848
v 1.991554 10.188702 -1.036113
v 0.178164 9.940796 -1.136383
v 0.161044 10.203830 -1.056673
v 0.253907 9.922341 -2.657869
v 0.154777 10.214812 -2.730978
v 2.008928 10.331729 -2.659690
v 1.061634 10.147367 -1.035077
v 1.975071 11.079567 -1.037778
v 1.042412 10.172315 -2.825967
v 1.060522 11.077962 -2.818824
v 0.259337 5.231082 -1.874670
v 0.259337 5.231083 -1.163424
v 0.257987 6.201839 -1.888353
v 0.258445 6.199125 -1.155182
v 0.241886 7.162734 -1.152654
v 0.246937 7.174195 -1.856682
v 0.055845 8.150771 -1.826844
v 0.217320 8.136769 -1.150591
v 1.069151 5.231082 -2.585915
v 1.072471 6.208278 -2.615095
v 1.882243 6.209617 -2.588418
v 1.072927 7.176538 -2.810207
v 1.892649 7.193314 -2.603433
v 1.139003 8.141147 -2.752270
v 1.797710 8.168035 -2.534683
v 1.878965 5.231082 -1.874669
v 1.878965 5.231082 -2.585915
v 1.879757 6.209149 -1.899376
v 2.058071 7.182334 -1.849377
v 2.102021 8.160491 -1.883146
v 1.069151 5.231083 -1.163423
v 1.878965 5.231083 -1.163423
v 1.880953 6.204313 -1.156229
v 1.073133 6.199458 -1.162315
v 1.900173 7.171427 -1.176119
v 1.076208 7.176668 -1.174273
v 1.956633 8.151171 -1.132514
v 1.104989 8.145005 -1.045411
v 0.308906 9.182404 -2.647861
v 0.259337 5.231082 -2.585916
v 0.263906 6.204940 -2.602499
v 0.246182 7.177056 -2.618688
v 0.204176 8.155091 -2.614401
v 0.076182 10.222575 -1.936213
v 0.117276 11.100885 -1.882149
v 0.175574 11.061905 -1.043026
v 1.050188 11.006080 -0.987576
v 0.228470 11.047023 -2.678346
v 2.053178 10.180644 -1.868560
v 0.241901 4.105514 -2.642082
v 1.068153 2.433788 -3.295121
v 1.894405 4.105514 -2.642082
v 2.388530 0.060256 -2.401186
v 0.323212 0.060257 -3.294370
v 0.761727 1.051274 -3.294370
v 1.542020 0.849885 -3.294370
v 1.782426 0.060257 -3.294370
v 1.552898 7.989207 -1.441079
v 1.552898 7.989207 -2.314445
v 0.574239 7.989207 -1.441079
v 2.115125 1.494717 -3.396194
v -0.056921 1.494717 -3.570242
vt 0.301867 0.393624
vt 0.095075 0.406847
vt 0.157717 0.180852
vt 0.116616 0.205054
vt 0.133024 0.333462
vt 0.034961 0.359501
vt 0.760402 0.213011
vt 0.755784 0.333492
vt 0.738947 0.210982
vt 0.331963 0.170367
vt 0.309608 0.078060
vt 0.414347 0.141835
vt 0.047229 0.460313
vt 0.501540 0.328414
vt 0.732412 0.330552
vt 0.736721 0.460312
vt 0.801609 0.442067
vt 0.495504 0.393624
vt 0.495504 0.183903
vt 0.893943 0.408551
vt 0.689140 0.393624
vt 0.833326 0.143544
vt 0.706057 0.007145
vt 0.699931 0.083597
vt 0.649127 0.001388
vt 0.302910 0.004378
vt 0.363252 0.000068
vt 0.116940 0.090919
vt 0.018344 0.219644
vt 0.665335 0.173985
vt 0.640185 0.061834
vt 0.769254 0.096331
vt 0.747649 0.094487
vt 0.126967 0.016831
vt 0.007355 0.108583
vt 0.781461 0.012623
vt 0.382154 0.554788
vt 0.388672 0.493195
vt 0.477464 0.493195
vt 0.377216 0.407561
vt 0.376703 0.347173
vt 0.477463 0.407560
vt 0.382687 0.300666
vt 0.388671 0.254159
vt 0.477463 0.254159
vt 0.383866 0.189334
vt 0.388672 0.102908
vt 0.477463 0.102908
vt 0.379212 0.034945
vt 0.607652 0.338983
vt 0.607652 0.452606
vt 0.550230 0.340036
vt 0.668424 0.708873
vt 0.587249 0.708873
vt 0.587250 0.124916
vt 0.318845 0.709724
vt 0.234249 0.709298
vt 0.234249 0.125342
vt 0.506074 0.708873
vt 0.412460 0.709298
vt 0.412460 0.125342
vt 0.759385 0.708873
vt 0.759386 0.124916
vt 0.850347 0.708873
vt 0.149652 0.708872
vt 0.352642 0.455524
vt 0.356102 0.342665
vt 0.477509 0.451010
vt 0.356656 0.263769
vt 0.652605 0.261136
vt 0.603499 0.139067
vt 0.505532 0.261030
vt 0.511765 0.179205
vt 0.999932 0.029431
vt 0.993767 0.114104
vt 0.862180 0.018479
vt 0.983721 0.233537
vt 0.971224 0.358106
vt 0.830395 0.219630
vt 0.856519 0.346167
vt 0.961010 0.458251
vt 0.226409 0.009476
vt 0.230175 0.087659
vt 0.248824 0.331472
vt 0.113540 0.452243
vt 0.237702 0.195808
vt 0.265346 0.193698
vt 0.258594 0.086841
vt 0.753226 0.010575
vt 0.253240 0.007491
vt 0.272102 0.331072
vt 0.261686 0.455191
vt 0.477463 0.300666
vt -0.320159 0.320279
vt -0.106192 0.320279
vt -0.106191 0.672328
vt 0.423320 0.327672
vt 0.423320 0.679721
vt 0.679721 0.327672
vt 0.209693 0.440737
vt 0.859998 0.104076
vt 0.886440 0.450645
vt -0.079540 0.310939
vt -0.183355 0.322363
vt -0.086875 0.200531
vt 0.134158 0.295960
vt 0.139842 0.188678
vt 0.252499 0.176429
vt 0.357905 0.301061
vt 0.253773 0.295518
vt 0.360507 0.180247
vt 0.573446 0.318345
vt 0.461402 0.306900
vt 0.591083 0.197563
vt 0.465989 0.203207
vt 0.472827 0.155587
vt -0.188568 0.211364
vt -0.201974 0.176877
vt 0.022032 0.196689
vt 0.017435 0.154585
vt 0.261572 0.125853
vt 0.591851 0.181167
vt 0.484513 0.040506
vt 0.134153 0.159094
vt 0.129076 0.033149
vt -0.051921 0.828216
vt -0.145394 0.832560
vt -0.055877 0.700101
vt -0.152389 0.705389
vt -0.159950 0.578854
vt -0.066839 0.571432
vt -0.078787 0.440828
vt -0.169327 0.450752
vt 0.147789 0.822136
vt 0.146412 0.692998
vt 0.254400 0.692191
vt 0.146579 0.563963
vt 0.255562 0.562901
vt 0.156133 0.434471
vt 0.252901 0.430843
vt 0.347133 0.822458
vt 0.253963 0.821291
vt 0.346379 0.693280
vt 0.355667 0.563072
vt 0.351005 0.434641
vt 0.546342 0.828379
vt 0.440379 0.824484
vt 0.444486 0.696505
vt 0.550769 0.701430
vt 0.447140 0.567563
vt 0.556381 0.572815
vt 0.450589 0.438393
vt 0.560433 0.445399
vt 0.021985 0.299324
vt 0.686032 0.331226
vt 0.704066 0.224344
vt 0.041558 0.824220
vt 0.038821 0.695224
vt 0.034515 0.565598
vt 0.027608 0.434393
vt 0.652183 0.832559
vt 0.657296 0.706038
vt 0.665035 0.580660
vt 0.675674 0.455503
vt -0.084739 0.165457
vt -0.100207 0.046545
vt 0.476702 0.457340
vt 0.477509 0.405763
vt 0.353009 0.225360
vt 0.480331 0.225360
vt 0.479524 0.276937
vt 0.349381 0.343717
vt 0.406803 0.342665
vt 0.607652 0.225360
vt 0.345753 0.462075
vt -0.213420 0.061093
vt 0.259187 0.026399
vt 0.362817 0.157128
vt 0.710636 0.188956
vt 0.725140 0.075467
vt 0.301867 0.183903
vt 0.372189 0.067311
vt 0.499848 0.460208
vt 0.689140 0.183903
vt 0.000068 0.028185
vt 0.477464 0.554787
vt 0.477463 0.347173
vt 0.477463 0.189334
vt 0.477463 0.034945
vt 0.550230 0.403134
vt 0.668425 0.124916
vt 0.318846 0.125768
vt 0.506075 0.124916
vt 0.850348 0.124917
vt 0.149652 0.124916
vt 0.359562 0.229806
vt 0.480969 0.229806
vt 0.602376 0.338150
vt 0.602376 0.229806
vt 0.602376 0.446496
vt 0.465326 0.180618
vt 0.558237 0.177957
vt -0.320158 0.672328
vt 0.679721 0.679721
vt 0.608472 0.065948
vt 0.011668 0.045375
vt 0.408818 0.276937
vt 0.550230 0.276937
vt 0.404789 0.408392
vt 0.373384 0.033903
vn -0.580800 0.538800 -0.610300
vn -0.932200 0.362000 -0.000000
vn 0.997000 0.003600 0.076700
vn 0.997600 0.066300 0.018200
vn 0.994300 0.027200 0.103000
vn -0.948400 0.024300 -0.316100
vn -0.895600 0.191100 -0.401800
vn -0.541700 0.061200 -0.838300
vn 0.062100 0.001000 -0.998100
vn 0.050100 -0.004800 -0.998700
vn -0.536400 -0.408400 -0.738600
vn 0.997100 0.004800 0.075500
vn 0.006800 0.439600 -0.898200
vn -0.415100 0.335800 -0.845500
vn -0.791600 0.401200 -0.460900
vn 0.000000 0.456700 -0.889600
vn 0.932200 0.362000 0.000000
vn 0.580800 0.538800 -0.610300
vn -0.105800 -0.076800 -0.991400
vn -0.088900 -0.047700 -0.994900
vn 0.710300 -0.050600 -0.702000
vn 0.096700 0.001500 -0.995300
vn -0.664700 -0.001000 -0.747100
vn 0.997500 -0.021100 0.067800
vn 0.980300 -0.018300 0.196800
vn -0.075300 -0.022700 -0.996900
vn 0.752200 -0.145800 -0.642600
vn -0.953000 -0.049600 -0.298800
vn -0.604200 -0.033700 -0.796100
vn 0.999200 0.011100 0.038900
vn 0.990600 -0.002200 0.136800
vn -0.990000 -0.023300 -0.139300
vn 0.975000 -0.222300 -0.000000
vn 0.515500 -0.430900 -0.740600
vn 0.309400 -0.530100 -0.789500
vn 0.820200 -0.572100 -0.000000
vn 0.075000 -0.747000 -0.660600
vn -0.141100 -0.703800 -0.696300
vn -0.315400 -0.949000 0.000000
vn -0.695300 -0.169800 -0.698300
vn -0.963500 -0.267800 -0.000000
vn 0.744800 0.667100 0.012100
vn 0.586800 0.596300 -0.547800
vn -0.690100 0.722700 0.038600
vn -0.286800 0.926200 -0.244700
vn -0.702900 0.711300 0.002900
vn 0.210000 0.953600 0.215800
vn 0.736400 0.676600 0.000900
vn 0.705000 0.709100 -0.016900
vn -0.302200 0.919700 0.250800
vn -0.050000 0.678300 0.733000
vn -0.023400 0.708100 0.705700
vn -0.016800 0.742600 -0.669600
vn 0.000400 0.710700 -0.703500
vn 0.278100 0.916100 -0.288800
vn 0.578000 0.574500 0.579500
vn 0.090000 0.148700 -0.984800
vn -0.124700 0.167200 -0.978000
vn 0.024700 0.073700 -0.997000
vn -0.999700 -0.014100 0.019400
vn -0.995700 -0.035900 0.084800
vn -0.990200 -0.123100 0.065500
vn -0.995500 -0.014100 0.093600
vn -0.993400 -0.014500 0.113500
vn -0.999300 -0.001200 0.037800
vn -0.998400 0.052500 0.019500
vn -0.995800 0.063700 0.066100
vn 0.947900 0.008700 -0.318300
vn 0.954400 -0.001500 -0.298600
vn 0.879100 0.179000 -0.441700
vn 0.999300 0.026400 0.026300
vn 0.942500 0.045500 -0.331100
vn 0.532100 0.068500 -0.843900
vn 0.532000 0.004200 -0.846700
vn -0.609800 -0.000000 -0.792500
vn 0.514400 0.000000 -0.857500
vn 0.382400 0.333200 -0.861800
vn 0.783500 0.383100 -0.489200
vn 0.045000 -0.999000 0.000000
vn -0.999900 -0.014000 -0.000000
vn -0.710200 -0.009900 -0.703900
vn -0.703900 -0.009800 -0.710200
vn 0.703900 0.009800 -0.710200
vn 0.710200 0.009900 -0.703900
vn 0.999900 0.014000 0.000000
vn -0.994700 -0.085800 0.056000
vn -0.991400 0.130200 -0.012100
vn -0.998900 0.009700 -0.044900
vn -0.688300 -0.005200 0.725400
vn -0.995200 -0.095700 -0.018800
vn 0.000600 -0.029700 -0.999600
vn 0.049200 -0.103200 -0.993400
vn 0.646700 -0.197200 -0.736800
vn 0.999700 0.026300 -0.001200
vn 0.680200 -0.023600 -0.732600
vn 0.995900 -0.085000 -0.029500
vn 0.014500 0.022200 0.999600
vn 0.681900 0.021200 0.731100
vn -0.002000 -0.183600 0.983000
vn 0.685700 -0.175000 0.706600
vn 0.664600 -0.134300 0.735000
vn -0.727400 -0.132900 0.673200
vn -0.665900 -0.125600 0.735400
vn -0.674700 -0.224200 -0.703300
vn -0.712500 -0.129900 -0.689500
vn 0.749100 -0.146400 -0.646000
vn -0.005800 -0.198600 0.980100
vn 0.547200 0.583300 0.600200
vn 0.026300 -0.073700 -0.996900
vn -0.006300 0.689100 -0.724700
vn -1.000000 0.000400 -0.001700
vn -0.707300 -0.004000 0.706900
vn -1.000000 -0.007100 -0.004800
vn -0.699800 -0.007400 0.714300
vn -0.691800 -0.074800 0.718200
vn -0.994600 -0.103300 -0.005000
vn -0.999700 -0.009600 0.020400
vn -0.678800 -0.005400 0.734300
vn 0.007200 -0.022300 -0.999700
vn 0.035100 -0.087100 -0.995600
vn 0.699400 -0.050400 -0.712900
vn 0.044300 -0.049200 -0.997800
vn 0.703600 0.020900 -0.710300
vn 0.098800 0.028900 -0.994700
vn 0.657300 -0.022200 -0.753300
vn 1.000000 -0.001600 0.000700
vn 0.706900 -0.004200 -0.707300
vn 0.995800 -0.091200 0.000900
vn 0.999100 -0.040000 -0.012500
vn 0.995300 -0.009200 -0.096600
vn -0.001700 -0.002900 1.000000
vn 0.708500 -0.006200 0.705600
vn 0.683000 -0.034800 0.729600
vn 0.000700 0.005700 1.000000
vn 0.625900 -0.029600 0.779300
vn 0.024100 -0.051200 0.998400
vn 0.676900 -0.024400 0.735700
vn 0.013200 -0.055800 0.998400
vn -0.663100 -0.019400 -0.748200
vn -0.714300 -0.013600 -0.699700
vn -0.725400 -0.051300 -0.686400
vn -0.764200 -0.054000 -0.642700
vn -0.715700 0.022600 -0.698000
vn -0.998400 -0.056200 -0.011000
vn -0.667400 0.744400 -0.021300
vn -0.550500 0.581300 0.599100
vn -0.007800 0.601400 0.798900
vn -0.559900 0.613600 -0.556800
vn 0.999700 -0.024300 0.007500
vn -0.628100 0.534300 -0.565700
vn 0.000000 0.656600 -0.754200
vn 0.628100 0.534300 -0.565700
vn 0.991300 0.000000 0.131300
vn 0.998800 -0.048000 -0.000000
vn 0.388500 -0.921500 0.000000
vn -0.778700 -0.627400 0.000000
vn -0.997600 -0.069900 -0.000000
vn -0.571900 0.584000 -0.576100
vn -0.584300 0.583000 0.564500
vn 0.564000 0.586300 -0.581600
s 1
f 1/1/1 2/2/2 3/3/2
f 4/4/3 5/5/4 6/6/5
f 7/7/6 8/8/7 9/9/8
f 10/10/9 11/11/10 12/12/11
f 6/6/5 5/5/4 13/13/12
f 14/14/13 15/15/14 16/16/15
f 15/15/14 8/8/7 16/17/15
f 17/18/16 1/1/1 18/19/16
f 19/20/17 20/21/18 21/22/17
f 22/23/19 23/24/20 24/25/21
f 11/11/10 25/26/22 26/27/23
f 27/28/24 4/4/3 28/29/25
f 23/24/20 29/30/26 30/31/27
f 31/32/28 7/7/6 32/33/29
f 33/34/30 27/28/24 34/35/31
f 35/36/32 31/32/28 32/33/29
f 24/37/21 30/38/27 36/39/33
f 30/38/27 37/40/34 36/39/33
f 37/40/34 38/41/35 39/42/36
f 40/43/37 41/44/38 42/45/39
f 41/44/38 12/46/11 42/45/39
f 12/46/11 43/47/40 44/48/41
f 43/47/40 26/49/23 44/48/41
f 45/50/42 46/51/43 47/52/44
f 48/53/45 47/54/44 49/55/46
f 50/56/47 51/57/48 52/58/49
f 53/59/50 54/60/51 55/61/52
f 56/62/53 48/53/45 57/63/54
f 58/64/55 56/62/53 57/63/54
f 51/57/48 58/65/55 52/58/49
f 54/60/51 50/56/47 55/61/52
f 47/54/44 53/59/50 49/55/46
f 59/66/56 52/67/49 55/68/52
f 60/69/57 10/10/9 12/12/11
f 29/30/26 61/70/58 37/71/34
f 62/72/59 60/69/57 40/73/37
f 63/74/60 64/75/61 65/76/62
f 66/77/63 67/78/64 68/79/65
f 69/80/66 67/78/64 70/81/67
f 64/75/61 66/77/63 68/79/65
f 71/82/68 72/83/69 27/28/24
f 5/5/4 73/84/70 74/85/71
f 72/83/69 75/86/72 4/4/3
f 75/86/72 73/84/70 4/4/3
f 76/87/73 77/88/74 11/11/10
f 78/89/75 32/33/29 22/23/19
f 77/88/74 79/90/76 25/26/22
f 32/33/29 9/9/8 23/24/20
f 80/91/77 76/87/73 10/10/9
f 9/9/8 15/15/14 29/30/26
f 14/14/13 80/91/77 62/72/59
f 80/91/77 14/14/13 81/92/78
f 20/21/18 17/18/16 18/19/16
f 38/41/35 40/43/37 82/93/79
f 61/70/58 62/72/59 40/73/37
f 15/15/14 14/14/13 62/72/59
f 83/94/80 84/95/81 85/96/82
f 84/95/81 86/97/83 87/98/84
f 86/97/83 88/99/85 87/98/84
f 76/87/73 80/91/77 75/86/72
f 79/90/76 77/88/74 71/82/68
f 73/84/70 80/91/77 81/100/78
f 77/88/74 76/87/73 72/83/69
f 65/76/62 89/101/86 31/32/28
f 68/79/65 69/80/66 7/7/6
f 8/8/7 69/80/66 90/102/87
f 89/101/86 68/79/65 7/7/6
f 91/103/88 92/104/89 93/105/90
f 94/106/91 95/107/92 96/108/93
f 97/109/94 98/110/95 99/111/96
f 100/112/97 101/113/98 102/114/99
f 102/114/99 103/115/100 104/116/101
f 93/105/90 105/117/102 106/118/103
f 95/107/92 107/119/104 108/120/105
f 99/111/96 96/108/93 109/121/106
f 110/122/107 104/116/101 111/123/108
f 112/124/109 108/120/105 113/125/110
f 114/126/111 115/127/112 116/128/113
f 116/128/113 117/129/114 118/130/115
f 119/131/116 118/130/115 120/132/117
f 120/132/117 121/133/118 91/103/88
f 122/134/119 123/135/120 124/136/121
f 123/135/120 125/137/122 126/138/123
f 125/137/122 127/139/124 128/140/125
f 127/139/124 94/106/91 128/140/125
f 129/141/126 130/142/127 124/136/121
f 131/143/128 124/136/121 132/144/129
f 132/144/129 126/138/123 128/140/125
f 133/145/130 128/140/125 98/110/95
f 134/146/131 135/147/132 136/148/133
f 137/149/134 136/148/133 138/150/135
f 139/151/136 138/150/135 140/152/137
f 141/153/138 140/152/137 100/112/97
f 142/154/139 107/119/104 95/107/92
f 92/155/89 100/112/97 102/114/99
f 105/156/102 102/114/99 110/122/107
f 96/108/93 95/107/92 109/121/106
f 143/157/140 144/158/141 123/135/120
f 144/158/141 145/159/142 125/137/122
f 145/159/142 146/160/143 125/137/122
f 146/160/143 142/154/139 127/139/124
f 115/161/112 134/146/131 137/149/134
f 117/162/114 137/149/134 139/151/136
f 118/163/115 139/151/136 141/153/138
f 121/164/118 141/153/138 92/155/89
f 142/154/139 91/103/88 107/119/104
f 101/113/98 97/109/94 99/111/96
f 107/119/104 93/105/90 108/120/105
f 103/115/100 99/111/96 104/116/101
f 108/120/105 147/165/144 148/166/145
f 143/157/140 114/126/111 144/158/141
f 144/158/141 116/128/113 119/131/116
f 145/159/142 119/131/116 120/132/117
f 146/160/143 120/132/117 142/154/139
f 135/147/132 129/141/126 131/143/128
f 136/148/133 131/143/128 132/144/129
f 138/150/135 132/144/129 133/145/130
f 140/152/137 133/145/130 101/113/98
f 46/51/43 113/167/110 54/168/51
f 149/169/146 150/170/147 56/171/53
f 148/172/145 149/169/146 51/173/48
f 150/170/147 111/174/108 56/171/53
f 151/175/148 148/172/145 51/173/48
f 113/167/110 151/175/148 54/168/51
f 111/174/108 45/50/42 47/52/44
f 147/165/144 106/118/103 149/176/146
f 109/121/106 46/177/43 152/178/149
f 106/179/103 110/122/107 149/180/146
f 112/124/109 46/177/43 109/121/106
f 104/116/101 152/178/149 111/123/108
f 153/181/150 1/1/1 3/3/2
f 28/29/25 4/4/3 6/6/5
f 8/8/7 15/15/14 9/9/8
f 11/11/10 43/182/40 12/12/11
f 5/5/4 74/85/71 13/13/12
f 154/183/151 14/14/13 16/16/15
f 1/1/1 153/181/150 18/19/16
f 20/21/18 155/184/152 21/22/17
f 23/24/20 30/31/27 24/25/21
f 43/182/40 11/11/10 26/27/23
f 34/35/31 27/28/24 28/29/25
f 29/30/26 37/71/34 30/31/27
f 7/7/6 9/9/8 32/33/29
f 156/185/153 33/34/30 34/35/31
f 78/89/75 35/36/32 32/33/29
f 157/186/154 24/37/21 36/39/33
f 37/40/34 39/42/36 36/39/33
f 38/41/35 158/187/155 39/42/36
f 82/93/79 40/43/37 42/45/39
f 12/46/11 159/188/156 42/45/39
f 159/188/156 12/46/11 44/48/41
f 26/49/23 160/189/157 44/48/41
f 46/51/43 53/190/50 47/52/44
f 161/191/158 48/53/45 49/55/46
f 59/192/56 50/56/47 52/58/49
f 162/193/159 53/59/50 55/61/52
f 48/53/45 161/191/158 57/63/54
f 163/194/160 58/64/55 57/63/54
f 58/65/55 163/195/160 52/58/49
f 50/56/47 59/192/56 55/61/52
f 53/59/50 162/193/159 49/55/46
f 52/67/49 163/196/160 57/197/54
f 55/68/52 52/67/49 57/197/54
f 49/198/46 57/197/54 161/199/158
f 162/200/159 55/68/52 57/197/54
f 49/198/46 162/200/159 57/197/54
f 41/201/38 60/69/57 12/12/11
f 61/70/58 38/202/35 37/71/34
f 60/69/57 41/201/38 40/73/37
f 64/75/61 89/101/86 65/76/62
f 67/78/64 69/80/66 68/79/65
f 90/102/87 69/80/66 70/81/67
f 89/101/86 64/75/61 68/79/65
f 33/34/30 71/82/68 27/28/24
f 73/84/70 81/100/78 74/85/71
f 27/28/24 72/83/69 4/4/3
f 73/84/70 5/5/4 4/4/3
f 10/10/9 76/87/73 11/11/10
f 32/33/29 23/24/20 22/23/19
f 11/11/10 77/88/74 25/26/22
f 9/9/8 29/30/26 23/24/20
f 60/69/57 80/91/77 10/10/9
f 15/15/14 61/70/58 29/30/26
f 80/91/77 60/69/57 62/72/59
f 14/14/13 154/183/151 81/92/78
f 155/184/152 20/21/18 18/19/16
f 158/187/155 38/41/35 82/93/79
f 38/202/35 61/70/58 40/73/37
f 61/70/58 15/15/14 62/72/59
f 164/203/80 83/94/80 85/96/82
f 85/96/82 84/95/81 87/98/84
f 88/99/85 165/204/85 87/98/84
f 80/91/77 73/84/70 75/86/72
f 77/88/74 72/83/69 71/82/68
f 76/87/73 75/86/72 72/83/69
f 35/36/32 65/76/62 31/32/28
f 69/80/66 8/8/7 7/7/6
f 16/17/15 8/8/7 90/102/87
f 31/32/28 89/101/86 7/7/6
f 92/104/89 105/117/102 93/105/90
f 98/110/95 94/106/91 96/108/93
f 98/110/95 96/108/93 99/111/96
f 101/113/98 103/115/100 102/114/99
f 110/122/107 102/114/99 104/116/101
f 147/165/144 93/105/90 106/118/103
f 112/124/109 95/107/92 108/120/105
f 152/178/149 99/111/96 109/121/106
f 150/205/147 110/122/107 111/123/108
f 108/120/105 151/206/148 113/125/110
f 115/127/112 117/129/114 116/128/113
f 119/131/116 116/128/113 118/130/115
f 118/130/115 121/133/118 120/132/117
f 121/133/118 92/104/89 91/103/88
f 130/142/127 122/134/119 124/136/121
f 124/136/121 123/135/120 126/138/123
f 126/138/123 125/137/122 128/140/125
f 94/106/91 98/110/95 128/140/125
f 131/143/128 129/141/126 124/136/121
f 124/136/121 126/138/123 132/144/129
f 133/145/130 132/144/129 128/140/125
f 97/109/94 133/145/130 98/110/95
f 137/149/134 134/146/131 136/148/133
f 139/151/136 137/149/134 138/150/135
f 141/153/138 139/151/136 140/152/137
f 140/152/137 101/113/98 100/112/97
f 94/106/91 142/154/139 95/107/92
f 105/156/102 92/155/89 102/114/99
f 106/179/103 105/156/102 110/122/107
f 95/107/92 112/124/109 109/121/106
f 122/134/119 143/157/140 123/135/120
f 123/135/120 144/158/141 125/137/122
f 146/160/143 127/139/124 125/137/122
f 142/154/139 94/106/91 127/139/124
f 117/162/114 115/161/112 137/149/134
f 118/163/115 117/162/114 139/151/136
f 121/164/118 118/163/115 141/153/138
f 141/153/138 100/112/97 92/155/89
f 91/103/88 93/105/90 107/119/104
f 103/115/100 101/113/98 99/111/96
f 93/105/90 147/165/144 108/120/105
f 99/111/96 152/178/149 104/116/101
f 151/206/148 108/120/105 148/166/145
f 114/126/111 116/128/113 144/158/141
f 145/159/142 144/158/141 119/131/116
f 146/160/143 145/159/142 120/132/117
f 120/132/117 91/103/88 142/154/139
f 136/148/133 135/147/132 131/143/128
f 138/150/135 136/148/133 132/144/129
f 140/152/137 138/150/135 133/145/130
f 133/145/130 97/109/94 101/113/98
f 53/190/50 46/51/43 54/168/51
f 58/207/55 149/169/146 56/171/53
f 149/169/146 58/207/55 51/173/48
f 111/174/108 48/208/45 56/171/53
f 50/209/47 151/175/148 51/173/48
f 151/175/148 50/209/47 54/168/51
f 48/208/45 111/174/108 47/52/44
f 148/166/145 147/165/144 149/176/146
f 152/178/149 46/177/43 45/210/42
f 110/122/107 150/205/147 149/180/146
f 113/125/110 46/177/43 112/124/109
f 152/178/149 45/210/42 111/123/108
