# Blender v2.74 (sub 0) OBJ File: ''
# www.blender.org
o Just_Another_Model3_Untitled.002
v -0.101441 2.118360 0.394335
v 0.257175 2.651760 0.613410
v -0.521970 2.346960 0.499110
v -0.264795 2.575560 1.051560
v -0.944880 2.590800 0.601980
v -0.758190 2.773680 0.960120
v -1.409700 2.727960 0.742950
v -1.089660 3.200400 0.990600
v -0.245745 2.026920 -0.000055
v -0.636270 2.346960 0.075724
v -1.082040 2.514600 0.202882
v -1.470660 2.849880 0.274320
v -0.346710 2.042160 -0.430530
v -0.712470 2.392680 -0.375285
v -1.188720 2.514600 -0.223838
v -1.478280 3.032760 -0.229553
v -0.172402 2.270760 0.260985
v -0.008811 2.712720 -0.086201
v -0.529590 2.484120 0.350520
v -0.253365 2.956560 0.386715
v -0.891540 2.682240 0.438150
v -0.704850 3.017520 0.434340
v -1.234440 2.849880 0.621030
v -1.074420 3.276600 0.339090
v -0.363855 1.965960 0.179070
v -0.727710 2.194560 0.199072
v -1.082040 2.392680 0.346710
v -1.447800 2.621280 0.356235
v -0.560070 1.706880 0.008751
v -0.929640 1.943100 -0.020122
v -1.280160 2.103120 0.184785
v -1.653540 2.392680 0.006906
v -0.196215 2.286000 0.154305
v -0.210502 2.484120 -0.388620
v -0.556260 2.484120 0.242887
v -0.373380 2.926080 -0.036195
v -0.914400 2.682240 0.331470
v -0.803910 2.971800 0.115729
v -1.234440 2.910840 0.510540
v -1.226820 3.139440 0.030004
v -0.339090 1.965960 0.285750
v -0.723900 2.164080 0.308610
v -1.059180 2.377440 0.453390
v -1.447800 2.560320 0.466725
v -0.514350 1.645920 0.333375
v -0.918210 1.821180 0.310515
v -1.234440 2.042160 0.510540
v -1.691640 2.194560 0.344805
v -0.297180 2.895600 0.037386
v -0.354330 2.362200 -0.386715
v -0.097155 3.154680 -0.327660
v 0.253365 2.651760 -0.514350
v 0.103346 3.429000 -0.693420
v 0.316230 3.078480 -0.842010
v 0.377190 3.749040 -0.975360
v 0.373380 3.246120 -1.356360
v -0.579120 3.200400 0.115252
v -0.432435 3.444240 -0.304800
v -0.185737 3.749040 -0.624840
v -0.046910 3.962400 -1.051560
v -0.929640 3.474720 0.122872
v -0.822960 3.688080 -0.337185
v -0.529590 4.023360 -0.609600
v -0.537210 4.145280 -1.188720
v -0.424815 2.971800 -0.122873
v -0.895350 2.880360 -0.451485
v -0.255270 3.200400 -0.434340
v -0.432435 2.834640 -0.803910
v -0.084296 3.429000 -0.746760
v -0.231457 3.200400 -0.998220
v 0.176213 3.611880 -1.028700
v -0.232410 3.505200 -1.348740
v -0.361950 3.246120 0.112871
v -0.255270 3.505200 -0.213360
v -0.028932 3.703320 -0.510540
v 0.067628 3.962400 -0.842010
v -0.379095 3.550920 0.329565
v -0.320040 3.825240 -0.007114
v -0.038814 3.992880 -0.293370
v -0.119539 4.358640 -0.662940
v -0.514350 3.032760 -0.122873
v -1.043940 3.230880 -0.266700
v -0.342900 3.261360 -0.434340
v -0.758190 3.124200 -0.765810
v -0.172402 3.505200 -0.746760
v -0.472440 3.429000 -0.963930
v 0.060484 3.642360 -1.074420
v -0.422910 3.794760 -1.234440
v -0.272415 3.185160 0.112871
v -0.147637 3.459480 -0.183833
v 0.061913 3.642360 -0.506730
v 0.180023 3.931920 -0.803910
v -0.090487 3.383280 0.367665
v 0.001868 3.718560 0.080486
v 0.249555 3.855720 -0.255270
v 0.243840 4.267200 -0.510540
v -0.125730 1.607820 -0.227648
v -0.440055 1.744980 0.361950
v -0.140017 2.087880 -0.350520
v -0.742950 2.118360 -0.120491
v -0.154305 2.560320 -0.474345
v -0.552450 2.606040 -0.285750
v -0.193357 3.002280 -0.708660
v -0.521970 3.139440 -0.195263
v 0.295275 1.592580 -0.312420
v 0.297180 2.087880 -0.358140
v 0.268605 2.560320 -0.548640
v 0.272415 3.063240 -0.579120
v 0.735330 1.615440 -0.297180
v 0.750570 2.133600 -0.283845
v 0.708660 2.575560 -0.541020
v 0.758190 3.139440 -0.354330
v 0.014049 1.744980 -0.132398
v 0.299085 1.882140 0.356235
v 0.001689 2.148840 -0.238125
v -0.113824 2.286000 0.285750
v -0.010656 2.560320 -0.342900
v -0.060246 2.651760 0.020002
v -0.119539 2.956560 -0.481965
v 0.104775 3.093720 -0.017621
v 0.148590 1.668780 -0.462915
v 0.202883 2.087880 -0.541020
v 0.133350 2.484120 -0.670560
v 0.197168 2.910840 -0.742950
v 0.369570 1.600200 -0.762000
v 0.470535 2.026920 -0.822960
v 0.344805 2.423160 -0.971550
v 0.590550 2.865120 -0.975360
v 0.123825 1.752600 -0.125730
v 0.647700 1.828800 0.113824
v 0.111443 2.164080 -0.230505
v 0.325755 2.286000 0.259080
v 0.099060 2.575560 -0.335280
v 0.272415 2.651760 -0.012502
v -0.014347 2.971800 -0.413385
v 0.445770 3.063240 -0.160973
v 0.039291 1.661160 -0.470535
v 0.096203 2.072640 -0.590550
v 0.023932 2.484120 -0.681990
v 0.091440 2.895600 -0.803910
v 0.044291 1.569720 -0.834390
v 0.151448 1.965960 -0.967740
v 0.019645 2.392680 -1.043940
v 0.278130 2.788920 -1.211580
vt 0.005646 0.359375
vt 0.005646 0.054688
vt 0.314453 0.359375
vt 0.314453 0.054688
vt 0.621094 0.359375
vt 0.621094 0.054688
vt 0.929688 0.359375
vt 0.929688 0.054688
vt 0.005646 0.658203
vt 0.314453 0.658203
vt 0.621094 0.658203
vt 0.929688 0.658203
vt 0.005646 0.958740
vt 0.314453 0.958740
vt 0.621094 0.958740
vt 0.929688 0.958740
vn -0.360600 -0.755500 0.546900
vn 0.185900 -0.724200 0.664000
vn -0.225600 -0.885600 0.406000
vn -0.135400 -0.878600 0.457900
vn -0.377300 -0.857300 0.350300
vn -0.278500 -0.659200 0.698500
vn -0.289600 -0.829900 0.476900
vn -0.284800 -0.286600 0.914700
vn -0.623300 -0.760400 0.182700
vn -0.434800 -0.894100 0.107900
vn -0.558600 -0.817500 0.140200
vn -0.552100 -0.832800 -0.040300
vn -0.675300 -0.725500 0.132700
vn -0.533700 -0.844900 0.035600
vn -0.528500 -0.844200 0.089600
vn -0.786500 -0.617300 -0.019000
vn 0.130700 -0.073600 0.988700
vn 0.644000 -0.005800 0.765000
vn 0.252300 -0.266200 0.930300
vn 0.339000 -0.236200 0.910600
vn 0.096500 -0.299200 0.949300
vn 0.217100 0.092400 0.971800
vn 0.199300 -0.184800 0.962400
vn 0.138200 0.509400 0.849400
vn -0.215500 -0.356900 0.908900
vn -0.022600 -0.490000 0.871400
vn -0.143200 -0.413000 0.899400
vn -0.185700 -0.573200 0.798100
vn -0.297300 -0.357000 0.885500
vn -0.154800 -0.537800 0.828700
vn -0.129300 -0.479500 0.867900
vn -0.466800 -0.407100 0.785100
vn 0.375000 0.442600 0.814500
vn 0.794400 0.424100 0.434900
vn 0.517400 0.252100 0.817700
vn 0.587300 0.274200 0.761500
vn 0.380100 0.234400 0.894800
vn 0.428500 0.581800 0.691300
vn 0.466100 0.341600 0.816200
vn 0.260200 0.870300 0.418100
vn 0.089200 0.141700 0.985900
vn 0.286800 0.008000 0.957900
vn 0.167000 0.083700 0.982400
vn 0.130200 -0.094700 0.987000
vn 0.006400 0.143800 0.989600
vn 0.160700 -0.037600 0.986300
vn 0.187200 0.011700 0.982300
vn -0.172400 0.011500 0.985000
vn 0.793400 0.265000 0.548100
vn 0.667600 -0.268400 0.694500
vn 0.647600 0.226800 0.727500
vn 0.648000 0.138500 0.748900
vn 0.642100 0.376500 0.667800
vn 0.873500 0.104600 0.475400
vn 0.715900 0.242400 0.654800
vn 0.993600 -0.073100 0.086600
vn 0.557700 0.646200 0.520900
vn 0.457700 0.541200 0.705400
vn 0.525000 0.616300 0.587000
vn 0.359100 0.693000 0.625100
vn 0.555700 0.697500 0.452400
vn 0.407000 0.651400 0.640400
vn 0.458700 0.624800 0.631800
vn 0.417200 0.845200 0.333900
vn 0.858200 -0.513200 0.006700
vn 0.442000 -0.890100 0.111400
vn 0.797900 -0.555500 0.234200
vn 0.740600 -0.633200 0.225100
vn 0.880900 -0.425300 0.207800
vn 0.761500 -0.634300 -0.133800
vn 0.821100 -0.555700 0.130300
vn 0.579800 -0.614100 -0.535500
vn 0.977400 -0.116200 0.176900
vn 0.897100 -0.234700 0.374300
vn 0.951200 -0.162400 0.262300
vn 0.914100 -0.046400 0.402700
vn 0.989400 -0.042900 0.138600
vn 0.925800 -0.099700 0.364600
vn 0.931000 -0.150000 0.332700
vn 0.970100 0.173600 0.169500
vn 0.495500 -0.780900 -0.380300
vn -0.005800 -0.979300 -0.202500
vn 0.483800 -0.857600 -0.174800
vn 0.401900 -0.899600 -0.170800
vn 0.605400 -0.769900 -0.201800
vn 0.328400 -0.808500 -0.488300
vn 0.473400 -0.843300 -0.254300
vn 0.074800 -0.599500 -0.796900
vn 0.823400 -0.528300 -0.207400
vn 0.756600 -0.653800 -0.011600
vn 0.801500 -0.582600 -0.134800
vn 0.852900 -0.521500 0.027000
vn 0.853300 -0.454300 -0.256000
vn 0.839300 -0.543400 -0.016100
vn 0.817200 -0.574400 -0.046800
vn 0.946600 -0.276600 -0.165700
vn -0.420800 -0.178300 -0.889400
vn -0.634800 -0.557100 -0.535400
vn -0.309500 -0.387100 -0.868500
vn -0.366500 -0.442500 -0.818500
vn -0.221100 -0.275300 -0.935600
vn -0.591400 -0.155300 -0.791300
vn -0.370300 -0.296900 -0.880200
vn -0.816100 0.141700 -0.560200
vn -0.001400 -0.053000 -0.998600
vn 0.027300 -0.281300 -0.959200
vn 0.017100 -0.141700 -0.989800
vn 0.196300 -0.189500 -0.962000
vn 0.033300 0.024700 -0.999100
vn 0.135400 -0.191600 -0.972100
vn 0.078900 -0.186200 -0.979300
vn 0.226100 0.132600 -0.965000
vn -0.988300 -0.004300 -0.152400
vn -0.895500 -0.327800 0.301000
vn -0.951800 -0.231900 -0.200700
vn -0.954700 -0.277000 -0.108600
vn -0.935900 -0.138200 -0.324000
vn -0.998400 0.040100 0.038700
vn -0.975500 -0.136500 -0.172300
vn -0.878500 0.355200 0.319500
vn -0.825000 0.038900 -0.563800
vn -0.818600 -0.202800 -0.537300
vn -0.823700 -0.060800 -0.563800
vn -0.712800 -0.143300 -0.686600
vn -0.789100 0.100100 -0.606000
vn -0.759600 -0.130200 -0.637200
vn -0.795800 -0.118300 -0.593900
vn -0.639800 0.167700 -0.750000
vn -0.894200 0.144100 0.423900
vn -0.623100 -0.228400 0.748000
vn -0.922400 -0.087000 0.376300
vn -0.882600 -0.132300 0.451100
vn -0.965900 0.005200 0.259000
vn -0.791200 0.183100 0.583600
vn -0.914200 0.004400 0.405300
vn -0.494300 0.471700 0.730200
vn -0.984700 0.173300 -0.015900
vn -0.997800 -0.061800 0.023600
vn -0.997000 0.077400 -0.006300
vn -0.985900 -0.026700 -0.165500
vn -0.968700 0.237400 -0.073000
vn -0.994900 0.003300 -0.100700
vn -0.998800 0.021900 -0.043600
vn -0.918800 0.276000 -0.282200
s 1
f 1/1/1 2/2/2 3/3/3
f 4/4/4 3/3/3 2/2/2
f 3/3/3 4/4/4 5/5/5
f 6/6/6 5/5/5 4/4/4
f 5/5/5 6/6/6 7/7/7
f 8/8/8 7/7/7 6/6/6
f 9/9/9 1/1/1 10/10/10
f 3/3/3 10/10/10 1/1/1
f 10/10/10 3/3/3 11/11/11
f 5/5/5 11/11/11 3/3/3
f 11/11/11 5/5/5 12/12/12
f 7/7/7 12/12/12 5/5/5
f 13/13/13 9/9/9 14/14/14
f 10/10/10 14/14/14 9/9/9
f 14/14/14 10/10/10 15/15/15
f 11/11/11 15/15/15 10/10/10
f 15/15/15 11/11/11 16/16/16
f 12/12/12 16/16/16 11/11/11
f 17/1/17 18/2/18 19/3/19
f 20/4/20 19/3/19 18/2/18
f 19/3/19 20/4/20 21/5/21
f 22/6/22 21/5/21 20/4/20
f 21/5/21 22/6/22 23/7/23
f 24/8/24 23/7/23 22/6/22
f 25/9/25 17/1/17 26/10/26
f 19/3/19 26/10/26 17/1/17
f 26/10/26 19/3/19 27/11/27
f 21/5/21 27/11/27 19/3/19
f 27/11/27 21/5/21 28/12/28
f 23/7/23 28/12/28 21/5/21
f 29/13/29 25/9/25 30/14/30
f 26/10/26 30/14/30 25/9/25
f 30/14/30 26/10/26 31/15/31
f 27/11/27 31/15/31 26/10/26
f 31/15/31 27/11/27 32/16/32
f 28/12/28 32/16/32 27/11/27
f 33/1/33 34/2/34 35/3/35
f 36/4/36 35/3/35 34/2/34
f 35/3/35 36/4/36 37/5/37
f 38/6/38 37/5/37 36/4/36
f 37/5/37 38/6/38 39/7/39
f 40/8/40 39/7/39 38/6/38
f 41/9/41 33/1/33 42/10/42
f 35/3/35 42/10/42 33/1/33
f 42/10/42 35/3/35 43/11/43
f 37/5/37 43/11/43 35/3/35
f 43/11/43 37/5/37 44/12/44
f 39/7/39 44/12/44 37/5/37
f 45/13/45 41/9/41 46/14/46
f 42/10/42 46/14/46 41/9/41
f 46/14/46 42/10/42 47/15/47
f 43/11/43 47/15/47 42/10/42
f 47/15/47 43/11/43 48/16/48
f 44/12/44 48/16/48 43/11/43
f 49/1/49 50/2/50 51/3/51
f 52/4/52 51/3/51 50/2/50
f 51/3/51 52/4/52 53/5/53
f 54/6/54 53/5/53 52/4/52
f 53/5/53 54/6/54 55/7/55
f 56/8/56 55/7/55 54/6/54
f 57/9/57 49/1/49 58/10/58
f 51/3/51 58/10/58 49/1/49
f 58/10/58 51/3/51 59/11/59
f 53/5/53 59/11/59 51/3/51
f 59/11/59 53/5/53 60/12/60
f 55/7/55 60/12/60 53/5/53
f 61/13/61 57/9/57 62/14/62
f 58/10/58 62/14/62 57/9/57
f 62/14/62 58/10/58 63/15/63
f 59/11/59 63/15/63 58/10/58
f 63/15/63 59/11/59 64/16/64
f 60/12/60 64/16/64 59/11/59
f 65/1/65 66/2/66 67/3/67
f 68/4/68 67/3/67 66/2/66
f 67/3/67 68/4/68 69/5/69
f 70/6/70 69/5/69 68/4/68
f 69/5/69 70/6/70 71/7/71
f 72/8/72 71/7/71 70/6/70
f 73/9/73 65/1/65 74/10/74
f 67/3/67 74/10/74 65/1/65
f 74/10/74 67/3/67 75/11/75
f 69/5/69 75/11/75 67/3/67
f 75/11/75 69/5/69 76/12/76
f 71/7/71 76/12/76 69/5/69
f 77/13/77 73/9/73 78/14/78
f 74/10/74 78/14/78 73/9/73
f 78/14/78 74/10/74 79/15/79
f 75/11/75 79/15/79 74/10/74
f 79/15/79 75/11/75 80/16/80
f 76/12/76 80/16/80 75/11/75
f 81/1/81 82/2/82 83/3/83
f 84/4/84 83/3/83 82/2/82
f 83/3/83 84/4/84 85/5/85
f 86/6/86 85/5/85 84/4/84
f 85/5/85 86/6/86 87/7/87
f 88/8/88 87/7/87 86/6/86
f 89/9/89 81/1/81 90/10/90
f 83/3/83 90/10/90 81/1/81
f 90/10/90 83/3/83 91/11/91
f 85/5/85 91/11/91 83/3/83
f 91/11/91 85/5/85 92/12/92
f 87/7/87 92/12/92 85/5/85
f 93/13/93 89/9/89 94/14/94
f 90/10/90 94/14/94 89/9/89
f 94/14/94 90/10/90 95/15/95
f 91/11/91 95/15/95 90/10/90
f 95/15/95 91/11/91 96/16/96
f 92/12/92 96/16/96 91/11/91
f 97/1/97 98/2/98 99/3/99
f 100/4/100 99/3/99 98/2/98
f 99/3/99 100/4/100 101/5/101
f 102/6/102 101/5/101 100/4/100
f 101/5/101 102/6/102 103/7/103
f 104/8/104 103/7/103 102/6/102
f 105/9/105 97/1/97 106/10/106
f 99/3/99 106/10/106 97/1/97
f 106/10/106 99/3/99 107/11/107
f 101/5/101 107/11/107 99/3/99
f 107/11/107 101/5/101 108/12/108
f 103/7/103 108/12/108 101/5/101
f 109/13/109 105/9/105 110/14/110
f 106/10/106 110/14/110 105/9/105
f 110/14/110 106/10/106 111/15/111
f 107/11/107 111/15/111 106/10/106
f 111/15/111 107/11/107 112/16/112
f 108/12/108 112/16/112 107/11/107
f 113/1/113 114/2/114 115/3/115
f 116/4/116 115/3/115 114/2/114
f 115/3/115 116/4/116 117/5/117
f 118/6/118 117/5/117 116/4/116
f 117/5/117 118/6/118 119/7/119
f 120/8/120 119/7/119 118/6/118
f 121/9/121 113/1/113 122/10/122
f 115/3/115 122/10/122 113/1/113
f 122/10/122 115/3/115 123/11/123
f 117/5/117 123/11/123 115/3/115
f 123/11/123 117/5/117 124/12/124
f 119/7/119 124/12/124 117/5/117
f 125/13/125 121/9/121 126/14/126
f 122/10/122 126/14/126 121/9/121
f 126/14/126 122/10/122 127/15/127
f 123/11/123 127/15/127 122/10/122
f 127/15/127 123/11/123 128/16/128
f 124/12/124 128/16/128 123/11/123
f 129/1/129 130/2/130 131/3/131
f 132/4/132 131/3/131 130/2/130
f 131/3/131 132/4/132 133/5/133
f 134/6/134 133/5/133 132/4/132
f 133/5/133 134/6/134 135/7/135
f 136/8/136 135/7/135 134/6/134
f 137/9/137 129/1/129 138/10/138
f 131/3/131 138/10/138 129/1/129
f 138/10/138 131/3/131 139/11/139
f 133/5/133 139/11/139 131/3/131
f 139/11/139 133/5/133 140/12/140
f 135/7/135 140/12/140 133/5/133
f 141/13/141 137/9/137 142/14/142
f 138/10/138 142/14/142 137/9/137
f 142/14/142 138/10/138 143/15/143
f 139/11/139 143/15/143 138/10/138
f 143/15/143 139/11/139 144/16/144
f 140/12/140 144/16/144 139/11/139
