# Blender v2.74 (sub 0) OBJ File: 'mount.blend'
# www.blender.org
o Plane.001
v -31.576630 -0.556224 -18.893854
v -11.576630 -0.972954 -18.893854
v -31.576630 -0.556224 -28.569517
v -11.577051 -1.663410 -28.569517
v 0.011246 -1.734929 -19.427250
v 0.024441 -2.406311 -29.102911
v 8.786598 -0.763423 -17.358681
v 8.776203 -0.444195 -27.035149
v 13.496998 -0.276420 -15.088063
v 22.197895 1.228524 -23.570093
v 17.843437 -1.739737 -7.413969
v 29.056324 0.737496 -15.095995
v 17.686077 -1.201273 4.076977
v 28.859547 -1.126301 -3.618923
v 20.904953 -1.687872 16.079952
v 33.447861 -0.144745 7.505642
v 30.812065 -2.858369 31.434837
v 43.295509 -2.775310 22.840317
vt 0.000000 0.000000
vt 1.000000 0.000000
vt 1.000000 1.000000
vt 0.000000 0.947753
vt 1.000000 0.052247
vt 1.000000 0.823909
vt 0.000000 1.000000
vt 0.000000 0.176091
vt 0.585167 0.104688
vt 1.000000 0.614972
vt 0.207830 1.000000
vt 0.000000 0.396276
vt 1.000000 0.402372
vt 0.000000 0.597628
vt 1.000000 0.364101
vt 0.000000 0.593328
vt 0.000000 0.715371
vt 1.000000 0.284629
vt 1.000000 0.979491
vt 0.104682 0.000000
vn 0.053600 0.996700 -0.060700
vn 0.058400 0.995800 -0.070600
vn 0.030700 0.999300 -0.020400
vn -0.055200 0.997600 -0.041600
vn -0.118100 0.992400 0.032800
vn -0.148400 0.988900 0.004300
vn -0.096700 0.989800 0.104600
vn -0.067200 0.991200 0.113600
vn -0.081400 0.984400 0.156000
vn -0.058700 0.998200 -0.011000
vn -0.069500 0.997400 0.018500
vn -0.028200 0.995000 0.095400
vn -0.037000 0.996400 0.075700
vn 0.031600 0.997900 0.055600
vn 0.016000 0.994100 0.107000
vn 0.020800 0.999800 0.000000
vn -0.063000 0.995600 -0.069200
vn -0.092800 0.992400 0.080900
s 1
f 2/1/1 4/2/2 3/3/3
f 4/4/2 2/1/1 5/5/4
f 5/6/4 7/7/5 8/8/6
f 8/7/6 7/9/5 9/2/7
f 9/10/7 11/11/8 12/12/9
f 11/13/8 13/3/10 14/14/11
f 13/15/10 15/3/12 16/16/13
f 15/17/12 17/1/14 18/18/15
f 1/7/16 2/1/1 3/3/3
f 6/3/17 4/4/2 5/5/4
f 6/2/17 5/6/4 8/8/6
f 10/19/18 8/7/6 9/2/7
f 10/2/18 9/10/7 12/12/9
f 12/1/9 11/13/8 14/14/11
f 14/20/11 13/15/10 16/16/13
f 16/3/13 15/17/12 18/18/15
