# Blender v2.74 (sub 0) OBJ File: ''
# www.blender.org
o Plane.001
v -11.576629 -1.291598 -18.893854
v -11.577052 -1.291592 -30.498808
v -31.576630 -1.291592 -28.569517
v 0.011246 -1.291598 -19.427250
v 8.286157 -1.291598 -17.893892
v 13.616242 -1.291593 -30.666569
v 13.011987 -1.291599 -15.832460
v 17.843437 -1.291604 -7.413969
v 29.056324 -1.291600 -15.095995
v 17.686077 -1.291610 4.076977
v 30.880142 -1.291604 -3.618923
v 20.904953 -1.291616 16.079952
v 33.447861 -1.291610 7.505642
v 30.812065 -1.291622 31.434839
v 43.295509 -1.291619 22.840319
v -31.576630 -1.291598 -18.893854
v 1.120419 -1.291592 -30.669989
v 22.448734 -1.291595 -24.820444
vt 0.473497 0.867439
vt 0.622575 0.865713
vt 0.623109 0.989120
vt 0.472187 0.737127
vt 0.470859 0.619524
vt 0.617069 0.617867
vt 0.469101 0.495509
vt 0.468995 0.383780
vt 0.623319 0.386310
vt 0.467786 0.270392
vt 0.621867 0.270190
vt 0.465514 0.140166
vt 0.624957 0.138041
vt 0.464764 0.003557
vt 0.625398 0.003580
vt 0.481132 0.994946
vt 0.620438 0.736877
vt 0.621416 0.495748
vn 0.000000 1.000000 0.000000
s 1
f 1/1/1 2/2/1 3/3/1
f 2/2/1 1/1/1 4/4/1
f 4/4/1 5/5/1 6/6/1
f 6/6/1 5/5/1 7/7/1
f 7/7/1 8/8/1 9/9/1
f 8/8/1 10/10/1 11/11/1
f 10/10/1 12/12/1 13/13/1
f 12/12/1 14/14/1 15/15/1
f 16/16/1 1/1/1 3/3/1
f 17/17/1 2/2/1 4/4/1
f 17/17/1 4/4/1 6/6/1
f 18/18/1 6/6/1 7/7/1
f 18/18/1 7/7/1 9/9/1
f 9/9/1 8/8/1 11/11/1
f 11/11/1 10/10/1 13/13/1
f 13/13/1 12/12/1 15/15/1
