# Blender v2.74 (sub 0) OBJ File: ''
# www.blender.org
o roof_detail_inside
v -1.510149 8.643658 -2.817714
v -1.509482 8.596364 -1.163708
v -1.614373 8.556283 -1.163707
v -1.397589 8.623886 -2.817714
v -1.397856 8.589154 -1.163707
v -1.510145 8.497189 0.309907
v -1.613106 8.463888 0.309907
v -1.397585 8.484899 0.309906
v -0.870971 8.207684 -2.817714
v -0.826412 8.282336 -1.163707
v -0.826142 8.166163 0.309906
v -2.140087 8.056438 0.309907
v -2.141354 8.200816 -1.163707
v -1.613109 8.618242 -2.817713
v -1.509482 8.630273 -1.163708
v -1.745536 8.473897 0.309907
v -1.744873 8.504711 -1.163708
v -1.510149 8.647333 -2.817714
v -1.261715 8.582469 -1.163708
v -1.521983 8.503206 0.316932
v -1.262382 8.605734 -2.817714
v -1.422365 8.619257 -2.609135
v -1.521102 8.622295 -2.791624
v -1.006737 8.214286 -2.815874
v -0.733690 7.991152 -2.607920
v -0.773620 8.028701 -2.784582
v -0.419423 7.610783 -3.084404
v -0.158742 7.281722 -2.630585
v -0.195341 7.350155 -2.823038
v 0.075608 6.840485 -3.061424
v -1.561252 8.602349 -2.609135
v -2.001437 8.219269 -2.791363
v -1.462516 8.605387 -2.791624
v -2.206080 8.019495 -2.604743
v -2.672566 7.598173 -2.830369
v -2.608032 7.639124 -3.023255
v -2.806195 7.331144 -2.618298
v -3.103441 6.802985 -2.774880
v -3.077845 6.847816 -2.975832
v 2.552749 8.322031 0.333575
v 0.208531 8.579368 0.369151
v 2.552748 8.266897 0.108535
v -1.461412 8.477770 0.115095
v 0.208530 8.524188 0.138810
v 2.552741 8.266718 0.581065
v -4.055073 8.409116 0.297999
v -1.984239 8.509819 0.332558
v -1.972958 8.452854 0.579966
v 2.552741 7.821635 1.462858
v 0.208516 8.524188 0.628228
v -4.055073 8.349567 0.078262
v -4.055072 7.982648 -0.636501
v -1.461412 8.155087 -0.597917
v 2.558520 7.982193 -0.624716
v 4.909576 8.317480 0.235944
v 4.571376 8.275826 0.099206
v 4.985908 7.791443 -0.803312
v 4.916138 7.357948 -1.207022
v 4.576810 7.310262 -1.338910
v 4.979409 6.736012 -2.192815
v 4.940539 6.567901 -2.188239
v 4.586408 6.512033 -2.267495
v 4.859707 5.686958 -2.949817
v 3.664688 5.643098 -2.440679
v 3.673855 5.643099 -2.943496
v 3.846628 4.762587 -2.943496
v 2.629215 5.643098 -2.440679
v 2.638382 5.643098 -2.943496
v 2.811155 4.762586 -2.943496
v -4.023451 8.317475 0.235944
v -4.438431 7.826595 -0.666015
v -4.099784 7.791439 -0.803312
v -4.030013 7.496445 -1.207021
v -4.432936 6.777268 -2.059765
v -4.093284 6.736008 -2.192814
v -2.778563 5.643095 -2.440678
v -2.815989 4.770728 -2.426703
v -2.960504 4.762583 -2.943496
v 4.909576 8.317480 0.360054
v 5.324555 7.826600 1.302515
v 4.985908 7.791443 1.444133
v 4.916138 7.357947 1.927538
v 5.319061 6.777273 2.824368
v 4.979409 6.736012 2.961774
v 4.940539 6.567901 2.961389
v 5.213974 5.736998 3.656844
v 4.859707 5.686958 3.740259
v 3.664688 5.643098 3.436126
v 3.702113 4.770730 3.421193
v 3.846628 4.762587 3.930565
v 2.629215 5.643098 3.464811
v 2.666640 4.770730 3.452097
v 2.811155 4.762586 3.967377
v -4.023451 8.317475 0.360054
v -3.685251 8.275823 0.496792
v -4.099784 7.791439 1.399310
v -4.030013 7.443965 1.885295
v -3.690685 7.396283 2.021909
v -4.093284 6.736008 2.890952
v -4.054414 6.567896 2.889609
v -3.700283 6.512030 2.969795
v -3.974087 5.654306 3.706731
v -2.778563 5.643095 3.387415
v -2.787730 5.643096 3.720310
v -2.960504 4.762584 3.900480
v -1.761884 5.643096 3.432445
v -1.771052 5.643096 3.766551
v -1.943625 4.762584 3.933243
v -3.644556 5.511835 -2.440678
v -3.681982 4.639466 -2.426703
v -3.826497 4.631321 -3.170170
v 4.816326 8.382920 0.359680
v 4.670922 8.334361 0.258534
v 5.004646 8.199817 -0.199932
v 4.816326 8.382920 0.240317
v 5.151521 8.262880 0.699042
v 5.004646 8.199817 0.799929
v 4.896967 8.421531 0.297999
v 4.896967 8.366351 0.078261
v 4.896967 8.366351 0.533901
v 4.896967 7.947474 1.413451
v -4.055073 8.349567 0.533902
v -1.949360 8.154674 1.462254
v -4.055072 7.947470 1.413452
v 0.208516 8.137058 1.512265
v -2.095265 8.237663 -2.817713
v -1.745540 8.621721 -2.817713
v -1.262378 8.474523 0.309907
v -1.055665 8.260615 -2.967052
v -0.318680 7.569830 -2.907711
v 0.109825 6.769292 -2.869571
v -1.942381 8.277234 -2.985065
v -2.202379 8.057044 -2.797878
v -2.778340 7.373075 -2.819610
v 0.208530 8.270234 -0.573074
v 5.324555 7.826600 -0.666016
v 5.319061 6.777273 -2.059766
v 5.213974 5.736998 -2.867603
v 3.702113 4.770730 -2.426704
v 2.666640 4.770730 -2.426704
v -3.685251 8.275823 0.099207
v -3.690685 7.448760 -1.338909
v -2.787730 5.643096 -2.943496
v 4.571376 8.275826 0.496791
v 4.576810 7.310263 2.065822
v 4.586408 6.512033 3.041868
v 3.673855 5.643099 3.768252
v 2.638382 5.643098 3.798911
v -4.438431 7.826595 1.262014
v -4.432936 6.777268 2.754842
v -4.330029 5.723658 3.644421
v -2.815989 4.770728 3.381994
v -1.799310 4.770728 3.420465
v -3.653724 5.511836 -2.943496
v 5.151521 8.262880 -0.099045
v 4.670922 8.334361 0.341462
v 4.896967 8.057266 -0.636502
vt 0.074236 0.273241
vt 0.520059 0.277039
vt 0.520734 0.250832
vt 0.703363 0.695696
vt 0.704106 0.679822
vt 0.445006 0.663357
vt 0.918245 0.275247
vt 0.918880 0.249509
vt 0.212446 0.659745
vt 0.444172 0.679086
vt 0.213387 0.643823
vt 0.899704 0.257170
vt 0.888320 0.083949
vt 0.472165 0.096696
vt 0.483550 0.269917
vt 0.100295 0.101764
vt 0.926168 0.083219
vt 0.527828 0.084602
vt 0.074950 0.247529
vt 0.528196 0.213917
vt 0.999971 0.134138
vt 0.528198 0.138589
vt 0.000029 0.216960
vt 0.471783 0.226720
vt 0.471786 0.146851
vt 0.000030 0.219969
vt 0.999965 0.232269
vt 0.999970 0.152399
vt 0.498611 0.284404
vt 0.553711 0.284437
vt 0.498680 0.063042
vt 0.553779 0.063149
vt 0.261890 0.262597
vt 0.523734 0.266309
vt 0.261884 0.236599
vt 0.710289 0.237278
vt 0.523735 0.239735
vt 0.738087 0.279106
vt 0.738075 0.250677
vt 0.476286 0.275469
vt 0.000121 0.282745
vt 0.231394 0.279211
vt 0.232668 0.250792
vt 0.738122 0.145516
vt 0.476286 0.245783
vt 0.999966 0.233457
vt 0.999924 0.149252
vt 0.710249 0.153069
vt 0.261900 0.152386
vt 0.146944 0.311226
vt 0.202044 0.311259
vt 0.202113 0.089971
vt 0.221061 0.406066
vt 0.338983 0.406548
vt 0.337154 0.048758
vt 0.381248 0.406066
vt 0.499171 0.406548
vt 0.497341 0.048758
vt 0.147013 0.089864
vt 0.217565 0.048759
vt 0.377752 0.048759
vt 0.396536 0.406066
vt 0.393040 0.048759
vt 0.512630 0.048758
vt 0.000046 0.258885
vt 0.000034 0.233463
vt 0.999887 0.282743
vt 0.999865 0.255572
vt 0.999962 0.150370
vt 0.000145 0.255573
vt 0.234415 0.150370
vt 0.000038 0.150370
vt 0.476281 0.140661
vt 0.999967 0.209467
vt 0.111679 0.274984
vt 0.081781 0.081072
vt 0.000029 0.141633
vt 0.000030 0.140101
vt 0.768653 0.262490
vt 0.999953 0.258883
vt 0.523730 0.155518
vt 0.514459 0.406548
vt 0.000070 0.149253
vn 0.038900 -0.998800 -0.029000
vn 0.148000 -0.987900 -0.047100
vn 0.462900 -0.885100 -0.047600
vn -0.388700 -0.921300 0.007400
vn -0.276000 -0.960000 -0.047000
vn 0.102600 -0.992500 -0.066700
vn 0.469800 -0.880900 -0.057500
vn -0.304800 -0.950100 -0.065600
vn -0.619200 -0.783500 0.052000
vn -0.491400 -0.870200 -0.035700
vn -0.482400 -0.873600 -0.063600
vn 0.597200 -0.800000 -0.058300
vn 0.565300 -0.823200 -0.053400
vn 0.429600 -0.902700 -0.022400
vn 0.138900 -0.989700 -0.034300
vn 0.170800 -0.982300 -0.076900
vn 0.455600 -0.890000 -0.016600
vn -0.011200 -0.999200 -0.039500
vn -0.183800 -0.981800 -0.047500
vn 0.006700 -0.996800 -0.079500
vn -0.165600 -0.986100 -0.013800
vn -0.583400 -0.753500 0.303100
vn -0.595100 -0.764900 0.246400
vn -0.620100 -0.783800 0.034600
vn -0.728500 -0.682100 0.064000
vn -0.751800 -0.658700 0.029900
vn -0.653700 -0.739800 0.159400
vn -0.883900 -0.467700 -0.001800
vn -0.882800 -0.469700 0.000900
vn -0.887000 -0.461800 -0.009500
vn 0.557700 -0.778200 0.288800
vn 0.582400 -0.812900 0.010000
vn 0.569000 -0.794000 0.214300
vn 0.726100 -0.683300 -0.076300
vn 0.653400 -0.754700 0.058400
vn 0.671700 -0.740300 0.027800
vn 0.867500 -0.497200 0.013000
vn 0.871300 -0.490800 0.001500
vn 0.870300 -0.492400 0.004400
vn -0.033800 -0.999400 0.010400
vn -0.039500 -0.999200 0.009700
vn -0.028200 -0.953100 0.301200
vn 0.032400 -0.947600 0.317900
vn -0.034200 -0.956300 0.290400
vn -0.038000 -0.940200 -0.338600
vn 0.050100 -0.998700 0.011700
vn 0.043700 -0.999000 0.008100
vn 0.038300 -0.959400 -0.279500
vn -0.040700 -0.896300 -0.441500
vn -0.040600 -0.950000 -0.309500
vn 0.040900 -0.931000 0.362700
vn 0.040700 -0.893100 0.448000
vn 0.042800 -0.914700 0.402000
vn -0.027300 -0.931500 0.362800
vn -0.074100 -0.891900 0.446000
vn -0.070600 -0.892100 0.446400
vn -0.084300 -0.891500 0.445100
vn -0.089800 -0.844900 0.527300
vn -0.086300 -0.845100 0.527600
vn -0.100000 -0.844400 0.526300
vn -0.070700 -0.648600 0.757800
vn -0.067200 -0.649000 0.757800
vn -0.080900 -0.647600 0.757700
vn -0.984100 -0.143700 -0.104400
vn -0.981100 -0.192500 -0.017900
vn -0.977800 -0.095700 -0.186200
vn 0.074100 -0.891900 0.446000
vn 0.087800 -0.891400 0.444700
vn 0.084300 -0.891500 0.445100
vn 0.125900 -0.789400 0.600900
vn 0.139000 -0.788400 0.599300
vn 0.135800 -0.788700 0.599600
vn 0.984100 -0.143700 -0.104400
vn 0.962200 -0.045600 -0.268400
vn 0.977800 -0.095700 -0.186200
vn -0.068400 -0.899500 -0.431600
vn -0.086500 -0.898700 -0.430000
vn -0.082000 -0.898900 -0.430400
vn -0.090200 -0.855900 -0.509200
vn -0.101700 -0.855300 -0.508100
vn -0.098800 -0.855400 -0.508400
vn -0.070400 -0.657100 -0.750500
vn -0.084100 -0.655700 -0.750300
vn -0.080600 -0.656100 -0.750400
vn -0.983800 -0.141000 0.110800
vn -0.961200 -0.045900 0.272000
vn -0.973400 -0.080700 0.214400
vn -0.983900 -0.140200 0.110500
vn -0.962100 -0.045200 0.269100
vn -0.974000 -0.080300 0.211900
vn 0.074100 -0.891900 -0.446000
vn 0.070600 -0.892100 -0.446400
vn 0.084300 -0.891500 -0.445100
vn 0.116400 -0.815600 -0.566800
vn 0.113700 -0.815800 -0.567100
vn 0.124900 -0.815000 -0.565900
vn 0.052000 -0.663200 -0.746600
vn 0.064600 -0.662100 -0.746600
vn 0.013100 -0.666000 -0.745900
vn 0.984100 -0.138900 0.110600
vn 0.982000 -0.187100 0.027000
vn 0.974400 -0.078400 0.210900
vn 0.983900 -0.140200 0.110500
vn 0.981900 -0.187300 0.026900
vn 0.973900 -0.080100 0.212600
vn 0.987600 -0.125100 -0.095300
vn 0.980700 -0.045100 -0.190100
vn 0.986700 -0.093800 -0.132800
vn 0.095600 -0.936100 0.338500
vn 0.080900 -0.938900 0.334400
vn 0.139100 -0.926400 0.349900
vn 0.095600 -0.936100 -0.338500
vn 0.153400 -0.922800 -0.353500
vn 0.139100 -0.926400 -0.349900
vn 0.042100 -0.999100 0.010700
vn 0.039600 -0.947600 0.317100
vn 0.037000 -0.942900 -0.331100
vn 0.039400 -0.902100 -0.429600
vn 0.070400 -0.945500 -0.317900
vn 0.032400 -0.942200 -0.333600
vn 0.098600 -0.905000 -0.413700
vn -0.052600 -0.919100 -0.390500
vn 0.619600 -0.784900 -0.000200
vn 0.107900 -0.991700 -0.070200
vn -0.111500 -0.991100 -0.072700
vn -0.622100 -0.782000 -0.038300
vn -0.631000 -0.753300 0.185200
vn -0.888000 -0.459700 -0.012200
vn 0.581100 -0.811200 -0.065600
vn 0.742900 -0.659600 -0.114000
vn 0.866500 -0.498900 0.016000
vn -0.024500 -0.941600 0.335900
vn -0.087800 -0.891400 0.444700
vn -0.103500 -0.844200 0.526000
vn -0.084400 -0.647200 0.757600
vn -0.962200 -0.045600 -0.268400
vn 0.070600 -0.892100 0.446400
vn 0.122700 -0.789600 0.601200
vn 0.981100 -0.192500 -0.017900
vn -0.063900 -0.899600 -0.432000
vn -0.087300 -0.856100 -0.509400
vn -0.066800 -0.657400 -0.750500
vn -0.981900 -0.187700 0.027100
vn -0.981900 -0.187500 0.026900
vn 0.087800 -0.891400 -0.444700
vn 0.127700 -0.814800 -0.565500
vn 0.000600 -0.666600 -0.745400
vn 0.962600 -0.043000 0.267600
vn 0.961800 -0.045000 0.270000
vn 0.982000 -0.188100 -0.017900
vn 0.153400 -0.922800 0.353500
vn 0.080900 -0.938900 -0.334400
vn 0.031500 -0.917400 0.396700
s 1
f 1/1/1 2/2/2 3/3/3
f 1/4/1 4/5/4 5/6/5
f 6/7/6 7/8/7 2/2/2
f 6/9/6 2/10/2 8/11/8
f 4/12/4 9/13/9 10/14/10
f 5/15/5 10/14/10 11/16/11
f 7/8/7 12/17/12 3/3/3
f 3/3/3 13/18/13 14/19/14
f 15/20/15 16/21/16 17/22/17
f 15/20/15 17/22/17 18/23/18
f 15/24/15 19/25/19 20/26/20
f 18/27/18 21/28/21 19/25/19
f 22/29/22 23/30/23 24/31/24
f 25/29/25 26/30/26 27/32/27
f 28/29/28 29/30/29 30/32/30
f 31/29/31 32/31/32 33/30/33
f 34/29/34 35/31/35 36/32/36
f 37/29/37 38/31/38 39/32/39
f 40/33/40 41/34/41 42/35/42
f 41/34/41 43/36/43 44/37/44
f 40/38/40 45/39/45 41/40/41
f 46/41/46 47/42/47 48/43/48
f 45/39/45 49/44/49 50/45/50
f 43/36/43 51/46/51 52/47/52
f 43/36/43 53/48/53 44/37/44
f 42/35/42 44/37/44 54/49/54
f 55/50/55 56/51/56 57/52/57
f 58/29/58 59/30/59 60/32/60
f 61/50/61 62/51/62 63/52/63
f 64/53/64 65/54/65 66/55/66
f 67/56/64 68/57/65 69/58/66
f 70/50/67 71/59/68 72/52/69
f 73/29/70 74/31/71 75/32/72
f 76/53/73 77/60/74 78/55/75
f 79/50/76 80/59/77 81/52/78
f 82/29/79 83/31/80 84/32/81
f 85/50/82 86/59/83 87/52/84
f 88/53/85 89/60/86 90/55/87
f 91/56/88 92/61/89 93/58/90
f 94/50/91 95/51/92 96/52/93
f 97/29/94 98/30/95 99/32/96
f 100/50/97 101/51/98 102/52/99
f 103/53/100 104/54/101 105/55/102
f 106/56/103 107/57/104 108/58/105
f 109/62/106 110/63/107 111/64/108
f 112/50/109 113/51/110 114/52/111
f 115/50/112 116/59/113 117/52/114
f 118/65/115 40/33/40 119/66/116
f 118/67/115 120/68/117 45/39/45
f 120/68/117 121/69/118 49/44/49
f 119/66/116 42/35/42 54/49/54
f 47/42/47 41/40/41 50/45/50
f 122/70/119 123/71/120 124/72/121
f 48/43/48 123/71/120 122/70/119
f 50/45/50 125/73/122 48/43/48
f 20/74/20 16/21/16 15/20/15
f 14/19/14 1/1/1 3/3/3
f 2/10/2 1/4/1 5/6/5
f 7/8/7 3/3/3 2/2/2
f 2/10/2 5/6/5 8/11/8
f 5/15/5 4/12/4 10/14/10
f 8/75/8 5/15/5 11/16/11
f 12/17/12 13/18/13 3/3/3
f 13/18/13 126/76/123 14/19/14
f 17/22/17 127/77/124 18/23/18
f 19/25/19 128/78/125 20/26/20
f 15/24/15 18/27/18 19/25/19
f 23/30/23 129/32/126 24/31/24
f 130/31/127 25/29/25 27/32/27
f 131/31/128 28/29/28 30/32/30
f 32/31/32 132/32/129 33/30/33
f 133/30/130 34/29/34 36/32/36
f 134/30/131 37/29/37 39/32/39
f 41/34/41 44/37/44 42/35/42
f 47/79/47 43/36/43 41/34/41
f 46/80/46 51/46/51 43/36/43
f 47/79/47 46/80/46 43/36/43
f 45/39/45 50/45/50 41/40/41
f 122/70/119 46/41/46 48/43/48
f 49/44/49 125/73/122 50/45/50
f 53/48/53 43/36/43 52/47/52
f 53/48/53 135/81/132 44/37/44
f 44/37/44 135/81/132 54/49/54
f 136/59/133 55/50/55 57/52/57
f 137/31/134 58/29/58 60/32/60
f 138/59/135 61/50/61 63/52/63
f 139/60/136 64/53/64 66/55/66
f 140/61/136 67/56/64 69/58/66
f 141/51/137 70/50/67 72/52/69
f 142/30/138 73/29/70 75/32/72
f 143/54/139 76/53/73 78/55/75
f 144/51/140 79/50/76 81/52/78
f 145/30/141 82/29/79 84/32/81
f 146/51/142 85/50/82 87/52/84
f 147/54/143 88/53/85 90/55/87
f 148/57/144 91/56/88 93/58/90
f 149/59/145 94/50/91 96/52/93
f 150/31/146 97/29/94 99/32/96
f 151/59/147 100/50/97 102/52/99
f 152/60/148 103/53/100 105/55/102
f 153/61/149 106/56/103 108/58/105
f 154/82/150 109/62/106 111/64/108
f 155/59/151 112/50/109 114/52/111
f 156/51/152 115/50/112 117/52/114
f 40/33/40 42/35/42 119/66/116
f 40/38/40 118/67/115 45/39/45
f 45/39/45 120/68/117 49/44/49
f 157/83/153 119/66/116 54/49/54
f 48/43/48 47/42/47 50/45/50
f 125/73/122 123/71/120 48/43/48
