# Blender v2.74 (sub 0) OBJ File: ''
# www.blender.org
o plants_outside
v 2.275029 0.048903 -6.796073
v 2.434423 0.448973 -6.674089
v 2.153913 0.465684 -6.796073
v 2.536988 0.048903 -6.676261
v 2.275031 0.048903 -7.142059
v 2.268386 0.470083 -7.189905
v 2.509230 0.468417 -7.252720
v 2.509230 0.051637 -7.252720
v 2.153914 1.299244 -6.796073
v 2.389006 1.716024 -6.676262
v 2.127047 1.716025 -6.796073
v 2.536989 1.299244 -6.676261
v 2.511357 0.882464 -6.668998
v 2.176118 0.877806 -6.788846
v 2.127048 1.716025 -7.142059
v 2.419687 1.716024 -7.260398
v 2.153915 1.299244 -7.142059
v 2.460890 1.292823 -7.237040
v 2.416169 0.882464 -7.260398
v 2.177247 0.840383 -7.207959
v 2.508532 1.699389 -7.141438
v 2.237741 1.299319 -7.263420
v 2.135177 1.699389 -7.261247
v 2.533758 1.286697 -7.171284
v 2.508533 1.699389 -6.795453
v 2.135181 1.699389 -6.677111
v 2.135181 1.282609 -6.677111
v 2.629649 1.282608 -6.795453
v 2.629647 0.449048 -7.141439
v 2.283159 0.032268 -7.261247
v 2.135176 0.449048 -7.261247
v 2.656514 0.032267 -7.141438
v 2.160808 0.865828 -7.268510
v 2.676579 0.865828 -7.149560
v 2.629648 0.449048 -6.795453
v 2.135180 0.449048 -6.677111
v 2.283163 0.032268 -6.677111
v 2.656515 0.032267 -6.795453
v 2.286681 0.865828 -6.677111
v 2.771735 0.874294 -6.784863
v -0.029904 3.144159 -7.362611
v 0.474466 3.347728 -6.820815
v 0.474465 3.120068 -7.389359
v -0.024337 3.347728 -6.820813
v 0.973268 3.120068 -7.389362
v 0.973269 3.347728 -6.820817
v 1.472072 3.120068 -7.214753
v 1.472072 3.347728 -6.820819
v -0.024337 1.691130 -7.214745
v 0.474465 1.692686 -7.389359
v 0.474466 1.072581 -7.214747
v -0.024337 1.072581 -7.214744
v 0.474465 2.362377 -7.507783
v -0.042944 2.356291 -7.251698
v 1.472072 1.691130 -7.214752
v 0.973269 1.072581 -7.214749
v 0.973268 1.692686 -7.389361
v 1.472072 1.072581 -7.214751
v 1.472071 2.359588 -7.433167
v 0.988536 2.381197 -7.594205
v -1.076659 3.373229 -6.999949
v -0.593692 3.313205 -6.758656
v -0.575449 3.393263 -7.017289
v -1.091478 3.281583 -6.754943
v -0.077663 3.424885 -7.020999
v 0.401879 3.376449 -6.766078
v 0.420879 3.454843 -6.937425
v -0.095906 3.344827 -6.762366
v -0.977481 2.028505 -7.121153
v -0.481208 2.063455 -7.299439
v -0.441696 1.460578 -7.136625
v -0.939482 1.428956 -7.132913
v -0.520233 2.665261 -7.406078
v -1.034370 2.627578 -7.146202
v -0.557206 3.262552 -7.275921
v -1.061839 3.254105 -7.244956
v 0.515876 2.123371 -7.132289
v 0.056090 1.492200 -7.140337
v 0.016577 2.095077 -7.303152
v 0.553875 1.523822 -7.144049
v 0.475985 2.727083 -7.338899
v -0.008731 2.711677 -7.496066
v 0.439878 3.322468 -7.108770
v -0.059420 3.294174 -7.279633
v 2.879690 3.315204 -5.302375
v 2.262649 3.589003 -4.910944
v 2.833728 3.445133 -4.822990
v 2.285791 3.483433 -5.404912
v 2.941305 2.935829 -6.123521
v 2.331753 3.353505 -5.884297
v 2.934009 3.127338 -5.724325
v 2.373481 3.054993 -6.318398
v 1.089526 3.482721 -5.519413
v 0.487158 3.313781 -5.531379
v 1.039329 3.444065 -4.994742
v 0.441196 3.443709 -5.051993
v 1.690530 3.597413 -5.492877
v 1.636643 3.484945 -4.929193
v 1.177215 3.054280 -6.432899
v 0.579082 3.053925 -6.490149
v 1.135487 3.352793 -5.998799
v 0.533120 3.183853 -6.010765
v 1.780645 3.265512 -6.432294
v 1.752145 3.546951 -6.008186
v 1.380335 3.198143 -6.065522
v 0.759971 3.484949 -5.688939
v 1.329511 3.341740 -5.590547
v 0.788227 3.365363 -6.179433
v 1.481983 2.910948 -7.015471
v 0.839051 3.221766 -6.654408
v 1.431159 3.054545 -6.540495
v 0.884527 2.910948 -7.079401
v -0.406685 3.365363 -6.307293
v -1.009489 3.198143 -6.321240
v -0.462857 3.341740 -5.782336
v -1.060313 3.341740 -5.846265
v 0.194399 3.478773 -6.277263
v 0.133834 3.382486 -5.711266
v -0.310386 2.910948 -7.207261
v -0.907842 2.910948 -7.271191
v -0.355861 3.221766 -6.782269
v -0.958665 3.054546 -6.796216
v 0.293760 3.120117 -7.205852
v 0.261562 3.413542 -6.790215
v 1.753562 3.007628 -7.360785
v 1.234248 3.117518 -6.947444
v 1.771609 3.164620 -6.954487
v 1.240982 2.979786 -7.354778
v 1.227514 3.255250 -6.540111
v 1.728855 3.300053 -6.092955
v 1.764875 3.302352 -6.547153
v 1.220779 3.392982 -6.132777
v 2.914743 2.545828 -6.808213
v 2.765208 2.700998 -7.235312
v 2.787760 2.978762 -6.874844
v 2.921478 2.408096 -7.215547
v 2.299546 3.166662 -6.946450
v 2.263582 2.818424 -7.300249
v 2.781025 3.116494 -6.467510
v 2.745005 3.114195 -6.013310
v 2.901275 2.821292 -5.993545
v 2.908009 2.683560 -6.400878
v 2.273562 3.382284 -6.111753
v 2.299528 3.332695 -6.561304
v 2.680335 2.907073 -6.936397
v 2.807816 2.409806 -7.371239
v 2.680333 2.907073 -7.366438
v 2.830877 2.389036 -6.936397
v 2.680337 2.907073 -6.506353
v 2.680339 2.907073 -6.076312
v 2.680338 2.389036 -6.076312
v 2.830878 2.389036 -6.506354
v 2.613980 1.372995 -7.106253
v 2.210485 0.956678 -7.486812
v 2.288210 1.443081 -7.418163
v 2.414481 0.875510 -7.117037
v 2.759324 1.871000 -7.126390
v 2.399998 1.871000 -7.488572
v 2.859873 1.243598 -6.278885
v 2.618478 0.794342 -6.747261
v 2.803286 1.307903 -6.725660
v 2.822474 0.713174 -6.377486
v 2.956391 1.871000 -6.297901
v 2.916039 1.871194 -6.739721
v -3.829992 2.631908 -2.315000
v -3.723929 2.104636 -1.788879
v -3.652247 2.650086 -1.721359
v -3.806803 2.053200 -2.346102
v -3.066254 2.655673 -2.552017
v -3.508156 2.065081 -2.670962
v -3.570153 2.643790 -2.599150
v -3.022443 2.058388 -2.594874
v -3.562161 0.910467 -1.943600
v -3.674326 0.858630 -2.425442
v -3.674237 0.242769 -2.477053
v -3.598510 0.230887 -1.815027
v -3.720352 1.468513 -2.456879
v -3.678283 1.455448 -1.877613
v -3.416331 0.870511 -2.713129
v -2.814936 0.863816 -2.597675
v -2.845696 0.266532 -2.655511
v -3.416241 0.254650 -2.764741
v -2.925796 1.484339 -2.704489
v -3.462357 1.480395 -2.744566
v -3.583371 4.503930 -1.732697
v -3.753955 3.896808 -1.242406
v -3.584919 4.492049 -1.234038
v -3.776525 3.883269 -1.769559
v -3.517159 4.186360 -2.627190
v -3.705473 3.895869 -2.374877
v -3.724062 4.437729 -2.207834
v -3.417551 3.856587 -2.753067
v -3.597682 2.511257 -1.277329
v -3.769754 2.541714 -1.776084
v -3.660031 1.925852 -1.790417
v -3.661579 1.913971 -1.291759
v -3.750961 3.131778 -1.263020
v -3.823608 3.151597 -1.790299
v -3.487616 2.519089 -2.736556
v -3.624554 1.931448 -2.278671
v -3.768205 2.553596 -2.274743
v -3.512476 1.922855 -2.743432
v -3.319538 3.132109 -2.767618
v -3.787303 3.163480 -2.387976
v -3.544312 4.981436 -0.809181
v -3.692177 4.404660 -0.304810
v -3.544311 4.981436 -0.310378
v -3.718923 4.380570 -0.809180
v -3.544313 4.981436 -1.307984
v -3.544314 4.981435 -1.806787
v -3.544314 4.380569 -1.806786
v -3.718924 4.380570 -1.307983
v -3.544309 3.178836 -0.310377
v -3.718922 3.178836 -0.809180
v -3.544309 2.577970 -0.809181
v -3.544308 2.577970 -0.310378
v -3.837346 3.779703 -0.809179
v -3.581263 3.779703 -0.291770
v -3.718923 3.178836 -1.307984
v -3.544313 3.178835 -1.806787
v -3.544312 2.577969 -1.806787
v -3.544310 2.577970 -1.307984
v -3.762729 3.779702 -1.806785
v -3.923768 3.791908 -1.323251
vt 0.666633 0.999900
vt 0.999900 0.749950
vt 0.666633 0.749950
vt 0.999900 0.999900
vt 0.333367 0.999900
vt 0.333367 0.749950
vt 0.000100 0.749950
vt 0.000100 0.999900
vt 0.666633 0.250050
vt 0.999900 0.000100
vt 0.666633 0.000100
vt 0.999900 0.250050
vt 0.999900 0.500000
vt 0.666633 0.500000
vt 0.333367 0.000100
vt 0.000100 0.000100
vt 0.333367 0.250050
vt 0.000100 0.250050
vt 0.000100 0.500000
vt 0.333367 0.500000
vt 0.999900 0.874925
vt 0.666633 0.874925
vt 0.333367 0.874925
vt 0.000100 0.874925
vn -0.837000 -0.167400 0.520900
vn -0.388300 -0.046000 0.920400
vn -0.880000 -0.101700 0.464000
vn -0.407400 -0.114000 0.906100
vn -0.782500 -0.126800 -0.609600
vn -0.725100 -0.113100 -0.679300
vn -0.289100 -0.069600 -0.954800
vn -0.342400 -0.056200 -0.937900
vn -0.815800 -0.053500 0.575900
vn -0.347300 -0.072800 0.934900
vn -0.825800 -0.083300 0.557800
vn -0.330800 -0.023100 0.943400
vn -0.338900 0.023000 0.940600
vn -0.826100 -0.027300 0.562800
vn -0.822700 -0.072000 -0.563800
vn -0.335200 -0.053300 -0.940600
vn -0.819200 -0.024200 -0.573000
vn -0.301200 0.026700 -0.953200
vn -0.248200 0.016200 -0.968600
vn -0.761800 -0.038600 -0.646700
vn 0.759600 0.155200 -0.631600
vn 0.278300 0.044500 -0.959400
vn 0.302300 0.084900 -0.949400
vn 0.690800 0.154400 -0.706300
vn 0.781500 0.134800 0.609200
vn 0.262900 0.038200 0.964100
vn 0.245600 0.061800 0.967400
vn 0.814800 0.217100 0.537600
vn 0.754900 -0.041600 -0.654500
vn 0.265700 0.055800 -0.962400
vn 0.246300 0.004200 -0.969200
vn 0.802300 0.075500 -0.592100
vn 0.240000 -0.020100 -0.970600
vn 0.756900 0.022800 -0.653100
vn 0.777000 -0.063700 0.626300
vn 0.244500 -0.017500 0.969500
vn 0.262800 0.055000 0.963300
vn 0.801400 0.075200 0.593300
vn 0.224900 -0.000100 0.974400
vn 0.868200 0.038100 0.494700
vn -0.150100 0.585100 -0.796900
vn 0.006300 0.930200 -0.366900
vn -0.103400 0.600500 -0.792900
vn 0.012700 0.932100 -0.362000
vn 0.088700 0.624700 -0.775800
vn 0.037400 0.915900 -0.399600
vn 0.200300 0.679500 -0.705800
vn 0.074600 0.901400 -0.426400
vn -0.280700 -0.125500 -0.951600
vn -0.163200 -0.190200 -0.968100
vn -0.085800 -0.205500 -0.974900
vn -0.170500 -0.137500 -0.975700
vn -0.205100 -0.033800 -0.978200
vn -0.330000 -0.054600 -0.942400
vn 0.236000 -0.210700 -0.948600
vn 0.085800 -0.205500 -0.974900
vn 0.101100 -0.236500 -0.966300
vn 0.170500 -0.137500 -0.975700
vn 0.322600 -0.021500 -0.946300
vn 0.120000 -0.005300 -0.992800
vn -0.048000 0.997800 -0.046100
vn -0.049800 0.950500 0.306600
vn -0.056100 0.995100 -0.081900
vn -0.042200 0.946500 0.319900
vn -0.030200 0.992900 -0.115500
vn -0.085000 0.937300 0.338000
vn -0.005100 0.996600 -0.082000
vn -0.071000 0.946900 0.313400
vn -0.280200 -0.133100 -0.950600
vn -0.158800 -0.194400 -0.968000
vn -0.080700 -0.198100 -0.976900
vn -0.169800 -0.133600 -0.976400
vn -0.211700 -0.023600 -0.977000
vn -0.333900 -0.062900 -0.940500
vn -0.142000 0.576000 -0.805100
vn -0.183800 0.549600 -0.815000
vn 0.241700 -0.194200 -0.950700
vn 0.090600 -0.187200 -0.978100
vn 0.108500 -0.229100 -0.967300
vn 0.170800 -0.111900 -0.978900
vn 0.314500 0.036700 -0.948500
vn 0.110300 0.033400 -0.993300
vn 0.181200 0.666300 -0.723300
vn 0.054400 0.625300 -0.778500
vn 0.321000 0.915600 -0.242000
vn 0.151300 0.983000 -0.103500
vn 0.284500 0.936200 -0.206300
vn 0.231400 0.960500 -0.154800
vn 0.376000 0.808300 -0.453200
vn 0.348500 0.870300 -0.348100
vn 0.367200 0.855400 -0.365300
vn 0.373600 0.796200 -0.475900
vn -0.193700 0.974600 -0.112500
vn -0.195000 0.962200 -0.190100
vn -0.136000 0.990700 0.010900
vn -0.133100 0.985800 -0.102400
vn -0.024300 0.998000 -0.058900
vn -0.067300 0.995500 0.067300
vn -0.182000 0.850500 -0.493500
vn -0.101700 0.896900 -0.430400
vn -0.220600 0.902100 -0.370800
vn -0.179100 0.917500 -0.355200
vn 0.050900 0.829400 -0.556300
vn 0.042000 0.927400 -0.371700
vn 0.298500 0.924400 -0.237400
vn 0.156100 0.979200 -0.129500
vn 0.290200 0.929000 -0.229500
vn 0.222000 0.960900 -0.165700
vn 0.188100 0.884700 -0.426600
vn 0.295500 0.891200 -0.344200
vn 0.249000 0.907600 -0.337900
vn 0.282200 0.834400 -0.473400
vn -0.188900 0.971700 -0.142100
vn -0.189400 0.957100 -0.219400
vn -0.132500 0.991000 -0.018600
vn -0.128400 0.982900 -0.131600
vn -0.020100 0.996000 -0.087400
vn -0.064500 0.997200 0.038400
vn -0.173400 0.836800 -0.519400
vn -0.093600 0.884700 -0.456700
vn -0.213200 0.892000 -0.398600
vn -0.171900 0.907600 -0.382900
vn 0.060100 0.813100 -0.579000
vn 0.049500 0.916300 -0.397300
vn 0.054100 0.890900 -0.450900
vn -0.079000 0.940800 -0.329600
vn 0.001000 0.916800 -0.399400
vn -0.071200 0.938200 -0.338800
vn -0.019500 0.971100 -0.238000
vn -0.025900 0.993800 -0.108200
vn -0.046500 0.973800 -0.222500
vn 0.048100 0.987100 -0.152800
vn 0.940600 0.307000 -0.145100
vn 0.718900 0.545000 -0.431400
vn 0.706600 0.613900 -0.352000
vn 0.920500 0.335300 -0.200500
vn 0.222100 0.850200 -0.477400
vn 0.247300 0.759700 -0.601400
vn 0.735100 0.667900 -0.116400
vn 0.753700 0.657100 -0.013800
vn 0.932000 0.362400 -0.010700
vn 0.949100 0.311700 -0.046600
vn 0.182800 0.982400 -0.038900
vn 0.191400 0.960500 -0.202100
vn 0.962400 0.271600 -0.009700
vn 0.970200 -0.012700 -0.241900
vn 0.964300 0.264100 -0.019300
vn 0.982100 0.110600 -0.152700
vn 0.973600 0.211600 0.085800
vn 0.975100 0.141700 0.170700
vn 0.968500 0.198000 0.150700
vn 0.975800 0.213800 0.045400
vn 0.791600 -0.239900 -0.562000
vn 0.761000 -0.163800 -0.627700
vn 0.714800 -0.209500 -0.667200
vn 0.794700 -0.230500 -0.561600
vn 0.871400 -0.190400 -0.452100
vn 0.751800 -0.263300 -0.604600
vn 0.959100 -0.168600 -0.227500
vn 0.882000 -0.231000 -0.410800
vn 0.917000 -0.216700 -0.335000
vn 0.931600 -0.160700 -0.325900
vn 0.997200 0.074200 0.011300
vn 0.984400 -0.020700 -0.174500
vn -0.970500 0.016500 -0.240700
vn -0.983900 -0.040300 0.174300
vn -0.975400 0.022800 0.219500
vn -0.963800 -0.027400 -0.265400
vn 0.122300 0.107200 -0.986700
vn -0.346400 0.085500 -0.934200
vn -0.376500 0.060000 -0.924500
vn 0.116700 0.140000 -0.983200
vn -0.986400 -0.055300 0.154500
vn -0.962200 -0.036000 -0.270000
vn -0.954500 0.051800 -0.293700
vn -0.986300 0.037100 0.160700
vn -0.940300 -0.086300 -0.329300
vn -0.982800 -0.132300 0.129000
vn -0.328700 -0.014000 -0.944300
vn 0.163100 -0.000200 -0.986600
vn 0.187200 0.083500 -0.978800
vn -0.320700 0.079900 -0.943800
vn 0.125400 0.024400 -0.991800
vn -0.340300 0.005000 -0.940300
vn -0.974900 0.219800 0.036200
vn -0.985400 0.161500 0.053900
vn -0.958400 0.284800 0.019200
vn -0.991000 0.132500 0.020600
vn -0.836200 0.069400 -0.544100
vn -0.926500 0.077200 -0.368300
vn -0.984900 0.123700 -0.120900
vn -0.759700 0.029500 -0.649600
vn -0.976100 -0.099500 0.193500
vn -0.989500 -0.120000 0.080700
vn -0.990500 -0.122100 0.062900
vn -0.985200 -0.041100 0.166600
vn -0.985000 -0.069700 0.158000
vn -0.998600 -0.026100 0.045100
vn -0.843500 -0.036400 -0.535900
vn -0.964500 -0.143900 -0.221300
vn -0.956400 -0.088200 -0.278300
vn -0.918800 -0.086100 -0.385300
vn -0.727400 0.009000 -0.686100
vn -0.912100 0.014500 -0.409800
vn -0.962400 0.271600 0.009700
vn -0.979600 0.141400 0.142600
vn -0.964300 0.264100 0.019300
vn -0.974400 0.203200 0.096200
vn -0.973600 0.211700 -0.085800
vn -0.975100 0.141700 -0.170700
vn -0.943200 0.230300 -0.239300
vn -0.961000 0.257200 -0.101300
vn -0.950300 -0.133700 0.281000
vn -0.965400 -0.202900 0.163600
vn -0.973600 -0.211700 0.085900
vn -0.975100 -0.141700 0.170700
vn -0.978200 -0.029200 0.205500
vn -0.942000 -0.060000 0.330200
vn -0.961800 -0.254400 -0.101000
vn -0.944700 -0.227700 -0.236000
vn -0.975100 -0.141700 -0.170700
vn -0.973600 -0.211700 -0.085900
vn -0.946300 -0.001800 -0.323300
vn -0.992800 0.007000 -0.119600
s 1
f 1/1/1 2/2/2 3/3/3
f 2/2/2 1/1/1 4/4/4
f 5/5/5 6/6/6 7/7/7
f 7/7/7 8/8/8 5/5/5
f 3/3/3 5/5/5 1/1/1
f 5/5/5 3/3/3 6/6/6
f 9/9/9 10/10/10 11/11/11
f 10/10/10 9/9/9 12/12/12
f 12/12/12 9/9/9 13/13/13
f 9/9/9 14/14/14 13/13/13
f 13/13/13 14/14/14 2/2/2
f 14/14/14 3/3/3 2/2/2
f 15/15/15 16/16/16 17/17/17
f 16/16/16 18/18/18 17/17/17
f 17/17/17 19/19/19 20/20/20
f 19/19/19 17/17/17 18/18/18
f 6/6/6 20/20/20 19/19/19
f 19/19/19 7/7/7 6/6/6
f 11/11/11 17/17/17 9/9/9
f 17/17/17 11/11/11 15/15/15
f 9/9/9 17/17/17 14/14/14
f 17/17/17 20/20/20 14/14/14
f 14/14/14 20/20/20 3/3/3
f 20/20/20 6/6/6 3/3/3
f 21/1/21 22/2/22 23/4/23
f 22/2/22 21/1/21 24/3/24
f 25/5/25 26/8/26 27/7/27
f 27/7/27 28/6/28 25/5/25
f 21/1/21 25/5/25 28/6/28
f 21/1/21 28/6/28 24/3/24
f 29/9/29 30/10/30 31/12/31
f 30/10/30 29/9/29 32/11/32
f 33/13/33 34/14/34 29/9/29
f 33/13/33 29/9/29 31/12/31
f 33/13/33 24/3/24 34/14/34
f 24/3/24 33/13/33 22/2/22
f 35/17/35 36/18/36 37/16/37
f 35/17/35 37/16/37 38/15/38
f 39/19/39 35/17/35 40/20/40
f 35/17/35 39/19/39 36/18/36
f 28/6/28 27/7/27 39/19/39
f 39/19/39 40/20/40 28/6/28
f 35/17/35 32/11/32 29/9/29
f 32/11/32 35/17/35 38/15/38
f 34/14/34 40/20/40 35/17/35
f 34/14/34 35/17/35 29/9/29
f 28/6/28 34/14/34 24/3/24
f 34/14/34 28/6/28 40/20/40
f 41/2/41 42/1/42 43/3/43
f 42/1/42 41/2/41 44/4/44
f 45/6/45 46/5/46 47/7/47
f 47/7/47 46/5/46 48/8/48
f 43/3/43 46/5/46 45/6/45
f 46/5/46 43/3/43 42/1/42
f 49/12/49 50/9/50 51/11/51
f 49/12/49 51/11/51 52/10/52
f 53/14/53 49/12/49 54/13/54
f 49/12/49 53/14/53 50/9/50
f 43/3/43 54/13/54 41/2/41
f 54/13/54 43/3/43 53/14/53
f 55/18/55 56/15/56 57/17/57
f 56/15/56 55/18/55 58/16/58
f 59/19/59 57/17/57 60/20/60
f 57/17/57 59/19/59 55/18/55
f 47/7/47 60/20/60 45/6/45
f 60/20/60 47/7/47 59/19/59
f 57/17/57 51/11/51 50/9/50
f 51/11/51 57/17/57 56/15/56
f 53/14/53 60/20/60 57/17/57
f 53/14/53 57/17/57 50/9/50
f 43/3/43 45/6/45 60/20/60
f 43/3/43 60/20/60 53/14/53
f 61/21/61 62/1/62 63/22/63
f 62/1/62 61/21/61 64/4/64
f 65/23/65 66/8/66 67/24/67
f 66/8/66 65/23/65 68/5/68
f 63/22/63 68/5/68 65/23/65
f 68/5/68 63/22/63 62/1/62
f 69/12/69 70/9/70 71/11/71
f 69/12/69 71/11/71 72/10/72
f 73/14/73 69/12/69 74/13/74
f 69/12/69 73/14/73 70/9/70
f 75/3/75 74/13/74 76/2/76
f 74/13/74 75/3/75 73/14/73
f 77/18/77 78/15/78 79/17/79
f 78/15/78 77/18/77 80/16/80
f 81/19/81 79/17/79 82/20/82
f 79/17/79 81/19/81 77/18/77
f 83/7/83 82/20/82 84/6/84
f 82/20/82 83/7/83 81/19/81
f 79/17/79 71/11/71 70/9/70
f 71/11/71 79/17/79 78/15/78
f 73/14/73 82/20/82 79/17/79
f 73/14/73 79/17/79 70/9/70
f 75/3/75 84/6/84 82/20/82
f 75/3/75 82/20/82 73/14/73
f 76/2/76 63/22/63 75/3/75
f 63/22/63 76/2/76 61/21/61
f 83/7/83 84/6/84 65/23/65
f 83/7/83 65/23/65 67/24/67
f 75/3/75 65/23/65 84/6/84
f 65/23/65 75/3/75 63/22/63
f 85/1/85 86/2/86 87/4/87
f 86/2/86 85/1/85 88/3/88
f 89/8/89 90/6/90 91/5/91
f 90/6/90 89/8/89 92/7/92
f 91/5/91 88/3/88 85/1/85
f 88/3/88 91/5/91 90/6/90
f 93/9/93 94/11/94 95/12/95
f 94/11/94 96/10/96 95/12/95
f 97/14/97 93/9/93 98/13/98
f 93/9/93 95/12/95 98/13/98
f 88/3/88 98/13/98 86/2/86
f 98/13/98 88/3/88 97/14/97
f 99/18/99 100/16/100 101/17/101
f 100/16/100 102/15/102 101/17/101
f 103/19/103 99/18/99 104/20/104
f 99/18/99 101/17/101 104/20/104
f 92/7/92 104/20/104 90/6/90
f 104/20/104 92/7/92 103/19/103
f 101/17/101 102/15/102 93/9/93
f 102/15/102 94/11/94 93/9/93
f 104/20/104 101/17/101 97/14/97
f 101/17/101 93/9/93 97/14/97
f 90/6/90 97/14/97 88/3/88
f 97/14/97 90/6/90 104/20/104
f 105/1/105 106/2/106 107/4/107
f 106/2/106 105/1/105 108/3/108
f 109/8/109 110/6/110 111/5/111
f 110/6/110 109/8/109 112/7/112
f 111/5/111 108/3/108 105/1/105
f 108/3/108 111/5/111 110/6/110
f 113/9/113 114/11/114 115/12/115
f 114/11/114 116/10/116 115/12/115
f 117/14/117 113/9/113 118/13/118
f 113/9/113 115/12/115 118/13/118
f 108/3/108 118/13/118 106/2/106
f 118/13/118 108/3/108 117/14/117
f 119/18/119 120/16/120 121/17/121
f 120/16/120 122/15/122 121/17/121
f 123/19/123 119/18/119 124/20/124
f 119/18/119 121/17/121 124/20/124
f 112/7/112 124/20/124 110/6/110
f 124/20/124 112/7/112 123/19/123
f 121/17/121 122/15/122 113/9/113
f 122/15/122 114/11/114 113/9/113
f 124/20/124 121/17/121 117/14/117
f 121/17/121 113/9/113 117/14/117
f 110/6/110 117/14/117 108/3/108
f 117/14/117 110/6/110 124/20/124
f 125/2/125 126/1/126 127/3/127
f 126/1/126 125/2/125 128/4/128
f 129/5/129 130/7/130 131/6/131
f 130/7/130 129/5/129 132/8/132
f 126/1/126 131/6/131 127/3/127
f 131/6/131 126/1/126 129/5/129
f 133/11/133 134/12/134 135/9/135
f 134/12/134 133/11/133 136/10/136
f 134/12/134 137/14/137 135/9/135
f 137/14/137 134/12/134 138/13/138
f 138/13/138 127/3/127 137/14/137
f 127/3/127 138/13/138 125/2/125
f 139/17/139 140/18/140 141/16/141
f 139/17/139 141/16/141 142/15/142
f 139/17/139 143/19/143 140/18/140
f 143/19/143 139/17/139 144/20/144
f 131/6/131 143/19/143 144/20/144
f 143/19/143 131/6/131 130/7/130
f 142/15/142 135/9/135 139/17/139
f 135/9/135 142/15/142 133/11/133
f 135/9/135 144/20/144 139/17/139
f 144/20/144 135/9/135 137/14/137
f 127/3/127 144/20/144 137/14/137
f 144/20/144 127/3/127 131/6/131
f 145/1/145 146/2/146 147/4/147
f 146/2/146 145/1/145 148/3/148
f 149/5/149 150/8/150 151/7/151
f 149/5/149 151/7/151 152/6/152
f 145/1/145 149/5/149 152/6/152
f 145/1/145 152/6/152 148/3/148
f 153/9/153 154/10/154 155/12/155
f 154/10/154 153/9/153 156/11/156
f 157/14/157 153/9/153 158/13/158
f 153/9/153 155/12/155 158/13/158
f 148/3/148 157/14/157 146/2/146
f 157/14/157 158/13/158 146/2/146
f 159/18/159 160/15/160 161/17/161
f 160/15/160 159/18/159 162/16/162
f 163/19/163 161/17/161 164/20/164
f 161/17/161 163/19/163 159/18/159
f 151/7/151 163/19/163 152/6/152
f 163/19/163 164/20/164 152/6/152
f 161/17/161 156/11/156 153/9/153
f 156/11/156 161/17/161 160/15/160
f 164/20/164 153/9/153 157/14/157
f 153/9/153 164/20/164 161/17/161
f 152/6/152 164/20/164 148/3/148
f 164/20/164 157/14/157 148/3/148
f 165/1/165 166/2/166 167/4/167
f 166/2/166 165/1/165 168/3/168
f 169/8/169 170/6/170 171/5/171
f 170/6/170 169/8/169 172/7/172
f 171/5/171 168/3/168 165/1/165
f 168/3/168 171/5/171 170/6/170
f 173/12/173 174/9/174 175/11/175
f 175/11/175 176/10/176 173/12/173
f 177/14/177 173/12/173 178/13/178
f 173/12/173 177/14/177 174/9/174
f 168/3/168 178/13/178 166/2/166
f 178/13/178 168/3/168 177/14/177
f 179/17/179 180/18/180 181/16/181
f 179/17/179 181/16/181 182/15/182
f 183/19/183 179/17/179 184/20/184
f 179/17/179 183/19/183 180/18/180
f 172/7/172 184/20/184 170/6/170
f 184/20/184 172/7/172 183/19/183
f 179/17/179 175/11/175 174/9/174
f 175/11/175 179/17/179 182/15/182
f 184/20/184 179/17/179 177/14/177
f 177/14/177 179/17/179 174/9/174
f 170/6/170 177/14/177 168/3/168
f 177/14/177 170/6/170 184/20/184
f 185/1/185 186/2/186 187/4/187
f 186/2/186 185/1/185 188/3/188
f 189/8/189 190/6/190 191/5/191
f 190/6/190 189/8/189 192/7/192
f 191/5/191 188/3/188 185/1/185
f 188/3/188 191/5/191 190/6/190
f 193/12/193 194/9/194 195/11/195
f 193/12/193 195/11/195 196/10/196
f 197/13/197 198/14/198 194/9/194
f 197/13/197 194/9/194 193/12/193
f 188/3/188 197/13/197 186/2/186
f 197/13/197 188/3/188 198/14/198
f 199/18/199 200/15/200 201/17/201
f 200/15/200 199/18/199 202/16/202
f 203/19/203 199/18/199 204/20/204
f 199/18/199 201/17/201 204/20/204
f 192/7/192 204/20/204 190/6/190
f 204/20/204 192/7/192 203/19/203
f 194/9/194 201/17/201 200/15/200
f 194/9/194 200/15/200 195/11/195
f 198/14/198 204/20/204 201/17/201
f 198/14/198 201/17/201 194/9/194
f 190/6/190 198/14/198 188/3/188
f 198/14/198 190/6/190 204/20/204
f 205/1/205 206/2/206 207/4/207
f 206/2/206 205/1/205 208/3/208
f 209/5/209 210/8/210 211/7/211
f 209/5/209 211/7/211 212/6/212
f 205/1/205 209/5/209 212/6/212
f 205/1/205 212/6/212 208/3/208
f 213/12/213 214/9/214 215/11/215
f 213/12/213 215/11/215 216/10/216
f 217/14/217 213/12/213 218/13/218
f 213/12/213 217/14/217 214/9/214
f 208/3/208 218/13/218 206/2/206
f 218/13/218 208/3/208 217/14/217
f 219/17/219 220/18/220 221/16/221
f 219/17/219 221/16/221 222/15/222
f 223/19/223 219/17/219 224/20/224
f 219/17/219 223/19/223 220/18/220
f 211/7/211 224/20/224 212/6/212
f 224/20/224 211/7/211 223/19/223
f 214/9/214 219/17/219 222/15/222
f 214/9/214 222/15/222 215/11/215
f 217/14/217 224/20/224 219/17/219
f 217/14/217 219/17/219 214/9/214
f 212/6/212 217/14/217 208/3/208
f 217/14/217 212/6/212 224/20/224
