# Blender v2.74 (sub 0) OBJ File: ''
# www.blender.org
o windows
v 2.861845 2.542526 -0.611202
v 2.861846 3.922761 -1.991428
v 2.861845 3.922757 -0.611197
v 2.861846 2.542530 -1.991433
v -3.447069 3.796897 -1.314683
v -3.447068 2.416671 0.065551
v -3.447068 3.796902 0.065549
v -3.447069 2.416666 -1.314680
v -3.447069 2.416667 1.100184
v -3.447068 3.796901 2.480412
v -3.447069 3.796898 1.100181
v -3.447068 2.416671 2.480416
vt 0.999899 0.999900
vt 0.000100 0.000100
vt 0.999900 0.000100
vt 0.000100 0.999900
vn 1.000000 0.000000 0.000000
vn -1.000000 0.000000 0.000000
s 1
f 1/1/1 2/2/1 3/3/1
f 2/2/1 1/1/1 4/4/1
f 5/3/2 6/4/2 7/2/2
f 6/4/2 5/3/2 8/1/2
f 9/1/2 10/2/2 11/3/2
f 10/2/2 9/1/2 12/4/2
